<svg width="257" height="254" viewBox="0 0 257 254" fill="none" xmlns="http://www.w3.org/2000/svg">
<g opacity="0.75">
<path d="M7.2317 220.385L211.553 7.45154C218.529 0.182397 229.83 0.182397 236.796 7.45154C243.771 14.7207 243.771 26.4979 236.796 33.757L32.4744 246.691C25.4989 253.96 14.1975 253.96 7.2317 246.691C0.256239 239.422 0.256239 227.644 7.2317 220.385Z" stroke="white" stroke-width="3" stroke-miterlimit="10"/>
<path d="M95.2415 220.385L299.563 7.45154C306.538 0.182397 317.84 0.182397 324.806 7.45154C331.781 14.7207 331.781 26.4979 324.806 33.757L120.484 246.691C113.509 253.96 102.207 253.96 95.2415 246.691C88.266 239.422 88.266 227.644 95.2415 220.385Z" stroke="#787EF2" stroke-width="3" stroke-miterlimit="10"/>
<path d="M187.252 220.385L391.574 7.45154C398.549 0.182397 409.85 0.182397 416.816 7.45154C423.792 14.7207 423.792 26.4979 416.816 33.757L212.495 246.691C205.519 253.96 194.218 253.96 187.252 246.691C180.277 239.422 180.277 227.644 187.252 220.385Z" stroke="white" stroke-width="3" stroke-miterlimit="10"/>
</g>
</svg>
