<svg width="78" height="68" viewBox="0 0 78 68" fill="none" xmlns="http://www.w3.org/2000/svg">
<path d="M4.60938 6.68213L10.1773 10.7399" stroke="white" stroke-width="3" stroke-linecap="round"/>
<path d="M2 13.8076L8.68234 15.4059" stroke="white" stroke-width="3" stroke-linecap="round"/>
<path d="M10.4561 1.95361L14.1987 7.7955" stroke="white" stroke-width="3" stroke-linecap="round"/>
<path d="M45.5118 66.3053C97.6867 35.9137 71.3608 -1.75897 49.2439 17.1151C47.0889 18.9541 43.8003 19.0729 41.5436 17.3604C17.6804 -0.747868 -9.99882 33.7249 45.5118 66.3053Z" fill="white"/>
<path d="M49.2439 17.1151L50.2176 18.2562V18.2561L49.2439 17.1151ZM44.7548 65.0103C44.0389 65.4272 43.7966 66.3455 44.2135 67.0614C44.6304 67.7773 45.5487 68.0196 46.2646 67.6027L44.7548 65.0103ZM41.5436 17.3604L42.4503 16.1655L41.5436 17.3604ZM50.2176 18.2561C55.4395 13.7999 60.7253 12.817 64.9186 14.0077C69.1234 15.2017 72.4947 18.6503 73.7855 23.6132C76.3565 33.4974 70.6132 49.9479 44.7568 65.0091L46.2668 67.6014C72.5853 52.271 79.7664 34.6894 76.6889 22.858C75.1556 16.963 71.0594 12.6328 65.7381 11.1218C60.4055 9.60756 54.1067 10.9934 48.2702 15.9741L50.2176 18.2561ZM44.7569 65.0091C44.7568 65.0091 44.7568 65.0091 44.7568 65.0091C44.7568 65.0091 44.7568 65.0091 44.7568 65.0091C44.7568 65.0091 44.7568 65.0091 44.7568 65.0091C44.7568 65.0091 44.7568 65.0091 44.7568 65.0091C44.7568 65.0091 44.7568 65.0091 44.7568 65.0091C44.7568 65.0091 44.7568 65.0091 44.7568 65.0091C44.7568 65.0091 44.7568 65.0091 44.7568 65.0091C44.7568 65.0091 44.7568 65.0091 44.7568 65.0091C44.7568 65.0091 44.7568 65.0091 44.7568 65.0091C44.7568 65.0091 44.7568 65.0091 44.7568 65.0091C44.7568 65.0091 44.7568 65.0091 44.7568 65.0091C44.7568 65.0091 44.7568 65.0091 44.7568 65.0091C44.7568 65.0091 44.7568 65.0091 44.7568 65.0091C44.7568 65.0091 44.7568 65.0091 44.7568 65.0091C44.7568 65.0091 44.7568 65.0091 44.7568 65.0091C44.7568 65.0091 44.7568 65.0091 44.7568 65.0091C44.7568 65.0091 44.7568 65.0091 44.7568 65.0091C44.7568 65.0091 44.7568 65.0091 44.7568 65.0091C44.7568 65.0091 44.7568 65.0091 44.7568 65.0091C44.7568 65.0091 44.7568 65.0091 44.7568 65.0091C44.7568 65.0091 44.7568 65.0091 44.7568 65.0091C44.7568 65.0091 44.7568 65.0091 44.7568 65.0091C44.7568 65.0091 44.7568 65.0091 44.7568 65.0091C44.7568 65.0091 44.7568 65.0091 44.7568 65.0091C44.7568 65.0091 44.7568 65.0091 44.7568 65.0091C44.7567 65.0091 44.7567 65.0091 44.7567 65.0091C44.7567 65.0091 44.7567 65.0092 44.7567 65.0092C44.7567 65.0092 44.7567 65.0092 44.7567 65.0092C44.7567 65.0092 44.7567 65.0092 44.7567 65.0092C44.7567 65.0092 44.7567 65.0092 44.7567 65.0092C44.7567 65.0092 44.7567 65.0092 44.7567 65.0092C44.7567 65.0092 44.7567 65.0092 44.7567 65.0092C44.7567 65.0092 44.7567 65.0092 44.7567 65.0092C44.7567 65.0092 44.7567 65.0092 44.7567 65.0092C44.7567 65.0092 44.7567 65.0092 44.7567 65.0092C44.7567 65.0092 44.7567 65.0092 44.7567 65.0092C44.7567 65.0092 44.7567 65.0092 44.7567 65.0092C44.7567 65.0092 44.7567 65.0092 44.7567 65.0092C44.7567 65.0092 44.7567 65.0092 44.7567 65.0092C44.7567 65.0092 44.7567 65.0092 44.7567 65.0092C44.7567 65.0092 44.7567 65.0092 44.7567 65.0092C44.7567 65.0092 44.7567 65.0092 44.7567 65.0092C44.7567 65.0092 44.7567 65.0092 44.7567 65.0092C44.7567 65.0092 44.7567 65.0092 44.7567 65.0092C44.7567 65.0092 44.7567 65.0092 44.7567 65.0092C44.7567 65.0092 44.7567 65.0092 44.7567 65.0092C44.7567 65.0092 44.7567 65.0092 44.7567 65.0092C44.7567 65.0092 44.7567 65.0092 44.7567 65.0092C44.7567 65.0092 44.7567 65.0092 44.7567 65.0092C44.7567 65.0092 44.7566 65.0092 44.7566 65.0092C44.7566 65.0092 44.7566 65.0092 44.7566 65.0092C44.7566 65.0092 44.7566 65.0092 44.7566 65.0092C44.7566 65.0092 44.7566 65.0092 44.7566 65.0092C44.7566 65.0092 44.7566 65.0092 44.7566 65.0092C44.7566 65.0092 44.7566 65.0092 44.7566 65.0092C44.7566 65.0092 44.7566 65.0092 44.7566 65.0092C44.7566 65.0092 44.7566 65.0092 44.7566 65.0092C44.7566 65.0092 44.7566 65.0092 44.7566 65.0092C44.7566 65.0092 44.7566 65.0092 44.7566 65.0092C44.7566 65.0092 44.7566 65.0092 44.7566 65.0092C44.7566 65.0092 44.7566 65.0092 44.7566 65.0092C44.7566 65.0092 44.7566 65.0092 44.7566 65.0092C44.7566 65.0092 44.7566 65.0092 44.7566 65.0092C44.7566 65.0092 44.7566 65.0092 44.7566 65.0092C44.7566 65.0092 44.7566 65.0092 44.7566 65.0092C44.7566 65.0092 44.7566 65.0092 44.7566 65.0092C44.7566 65.0092 44.7566 65.0092 44.7566 65.0092C44.7566 65.0092 44.7566 65.0092 44.7566 65.0092C44.7566 65.0092 44.7566 65.0093 44.7566 65.0093C44.7566 65.0093 44.7566 65.0093 44.7566 65.0093C44.7566 65.0093 44.7566 65.0093 44.7566 65.0093C44.7566 65.0093 44.7566 65.0093 44.7566 65.0093C44.7566 65.0093 44.7566 65.0093 44.7566 65.0093C44.7566 65.0093 44.7566 65.0093 44.7565 65.0093C44.7565 65.0093 44.7565 65.0093 44.7565 65.0093C44.7565 65.0093 44.7565 65.0093 44.7565 65.0093C44.7565 65.0093 44.7565 65.0093 44.7565 65.0093C44.7565 65.0093 44.7565 65.0093 44.7565 65.0093C44.7565 65.0093 44.7565 65.0093 44.7565 65.0093C44.7565 65.0093 44.7565 65.0093 44.7565 65.0093C44.7565 65.0093 44.7565 65.0093 44.7565 65.0093C44.7565 65.0093 44.7565 65.0093 44.7565 65.0093C44.7565 65.0093 44.7565 65.0093 44.7565 65.0093C44.7565 65.0093 44.7565 65.0093 44.7565 65.0093C44.7565 65.0093 44.7565 65.0093 44.7565 65.0093C44.7565 65.0093 44.7565 65.0093 44.7565 65.0093C44.7565 65.0093 44.7565 65.0093 44.7565 65.0093C44.7565 65.0093 44.7565 65.0093 44.7565 65.0093C44.7565 65.0093 44.7565 65.0093 44.7565 65.0093C44.7565 65.0093 44.7565 65.0093 44.7565 65.0093C44.7565 65.0093 44.7565 65.0093 44.7565 65.0093C44.7565 65.0093 44.7565 65.0093 44.7565 65.0093C44.7565 65.0093 44.7565 65.0093 44.7565 65.0093C44.7565 65.0093 44.7565 65.0093 44.7565 65.0093C44.7565 65.0093 44.7565 65.0093 44.7565 65.0093C44.7565 65.0093 44.7565 65.0093 44.7565 65.0093C44.7565 65.0093 44.7565 65.0093 44.7565 65.0093C44.7565 65.0093 44.7565 65.0093 44.7565 65.0093C44.7565 65.0093 44.7565 65.0093 44.7564 65.0093C44.7564 65.0093 44.7564 65.0093 44.7564 65.0093C44.7564 65.0093 44.7564 65.0093 44.7564 65.0093C44.7564 65.0093 44.7564 65.0093 44.7564 65.0093C44.7564 65.0093 44.7564 65.0093 44.7564 65.0093C44.7564 65.0093 44.7564 65.0093 44.7564 65.0093C44.7564 65.0093 44.7564 65.0093 44.7564 65.0093C44.7564 65.0093 44.7564 65.0093 44.7564 65.0093C44.7564 65.0093 44.7564 65.0093 44.7564 65.0093C44.7564 65.0093 44.7564 65.0093 44.7564 65.0093C44.7564 65.0093 44.7564 65.0093 44.7564 65.0093C44.7564 65.0093 44.7564 65.0093 44.7564 65.0093C44.7564 65.0093 44.7564 65.0093 44.7564 65.0093C44.7564 65.0093 44.7564 65.0093 44.7564 65.0094C44.7564 65.0094 44.7564 65.0094 44.7564 65.0094C44.7564 65.0094 44.7564 65.0094 44.7564 65.0094C44.7564 65.0094 44.7564 65.0094 44.7564 65.0094C44.7564 65.0094 44.7564 65.0094 44.7564 65.0094C44.7564 65.0094 44.7564 65.0094 44.7564 65.0094C44.7564 65.0094 44.7564 65.0094 44.7564 65.0094C44.7564 65.0094 44.7564 65.0094 44.7564 65.0094C44.7564 65.0094 44.7564 65.0094 44.7564 65.0094C44.7564 65.0094 44.7564 65.0094 44.7564 65.0094C44.7564 65.0094 44.7564 65.0094 44.7564 65.0094C44.7564 65.0094 44.7564 65.0094 44.7564 65.0094C44.7563 65.0094 44.7563 65.0094 44.7563 65.0094C44.7563 65.0094 44.7563 65.0094 44.7563 65.0094C44.7563 65.0094 44.7563 65.0094 44.7563 65.0094C44.7563 65.0094 44.7563 65.0094 44.7563 65.0094C44.7563 65.0094 44.7563 65.0094 44.7563 65.0094C44.7563 65.0094 44.7563 65.0094 44.7563 65.0094C44.7563 65.0094 44.7563 65.0094 44.7563 65.0094C44.7563 65.0094 44.7563 65.0094 44.7563 65.0094C44.7563 65.0094 44.7563 65.0094 44.7563 65.0094C44.7563 65.0094 44.7563 65.0094 44.7563 65.0094C44.7563 65.0094 44.7563 65.0094 44.7563 65.0094C44.7563 65.0094 44.7563 65.0094 44.7563 65.0094C44.7563 65.0094 44.7563 65.0094 44.7563 65.0094C44.7563 65.0094 44.7563 65.0094 44.7563 65.0094C44.7563 65.0094 44.7563 65.0094 44.7563 65.0094C44.7563 65.0094 44.7563 65.0094 44.7563 65.0094C44.7563 65.0094 44.7563 65.0094 44.7563 65.0094C44.7563 65.0094 44.7563 65.0094 44.7563 65.0094C44.7563 65.0094 44.7563 65.0094 44.7563 65.0094C44.7563 65.0094 44.7563 65.0094 44.7563 65.0094C44.7563 65.0094 44.7563 65.0094 44.7563 65.0094C44.7563 65.0094 44.7563 65.0094 44.7563 65.0094C44.7563 65.0094 44.7563 65.0094 44.7563 65.0094C44.7563 65.0094 44.7563 65.0094 44.7563 65.0094C44.7563 65.0094 44.7563 65.0094 44.7562 65.0094C44.7562 65.0094 44.7562 65.0094 44.7562 65.0094C44.7562 65.0094 44.7562 65.0094 44.7562 65.0094C44.7562 65.0094 44.7562 65.0094 44.7562 65.0094C44.7562 65.0094 44.7562 65.0094 44.7562 65.0094C44.7562 65.0094 44.7562 65.0094 44.7562 65.0094C44.7562 65.0094 44.7562 65.0094 44.7562 65.0095C44.7562 65.0095 44.7562 65.0095 44.7562 65.0095C44.7562 65.0095 44.7562 65.0095 44.7562 65.0095C44.7562 65.0095 44.7562 65.0095 44.7562 65.0095C44.7562 65.0095 44.7562 65.0095 44.7562 65.0095C44.7562 65.0095 44.7562 65.0095 44.7562 65.0095C44.7562 65.0095 44.7562 65.0095 44.7562 65.0095C44.7562 65.0095 44.7562 65.0095 44.7562 65.0095C44.7562 65.0095 44.7562 65.0095 44.7562 65.0095C44.7562 65.0095 44.7562 65.0095 44.7562 65.0095C44.7562 65.0095 44.7562 65.0095 44.7562 65.0095C44.7562 65.0095 44.7562 65.0095 44.7562 65.0095C44.7562 65.0095 44.7562 65.0095 44.7562 65.0095C44.7562 65.0095 44.7562 65.0095 44.7562 65.0095C44.7562 65.0095 44.7562 65.0095 44.7562 65.0095C44.7562 65.0095 44.7562 65.0095 44.7562 65.0095C44.7562 65.0095 44.7562 65.0095 44.7562 65.0095C44.7562 65.0095 44.7562 65.0095 44.7562 65.0095C44.7562 65.0095 44.7562 65.0095 44.7562 65.0095C44.7562 65.0095 44.7561 65.0095 44.7561 65.0095C44.7561 65.0095 44.7561 65.0095 44.7561 65.0095C44.7561 65.0095 44.7561 65.0095 44.7561 65.0095C44.7561 65.0095 44.7561 65.0095 44.7561 65.0095C44.7561 65.0095 44.7561 65.0095 44.7561 65.0095C44.7561 65.0095 44.7561 65.0095 44.7561 65.0095C44.7561 65.0095 44.7561 65.0095 44.7561 65.0095C44.7561 65.0095 44.7561 65.0095 44.7561 65.0095C44.7561 65.0095 44.7561 65.0095 44.7561 65.0095C44.7561 65.0095 44.7561 65.0095 44.7561 65.0095C44.7561 65.0095 44.7561 65.0095 44.7561 65.0095C44.7561 65.0095 44.7561 65.0095 44.7561 65.0095C44.7561 65.0095 44.7561 65.0095 44.7561 65.0095C44.7561 65.0095 44.7561 65.0095 44.7561 65.0095C44.7561 65.0095 44.7561 65.0095 44.7561 65.0095C44.7561 65.0095 44.7561 65.0095 44.7561 65.0095C44.7561 65.0095 44.7561 65.0095 44.7561 65.0095C44.7561 65.0095 44.7561 65.0095 44.7561 65.0095C44.7561 65.0095 44.7561 65.0095 44.7561 65.0095C44.7561 65.0095 44.7561 65.0095 44.7561 65.0095C44.7561 65.0095 44.7561 65.0095 44.7561 65.0095C44.7561 65.0095 44.7561 65.0095 44.7561 65.0095C44.7561 65.0095 44.7561 65.0095 44.7561 65.0095C44.7561 65.0095 44.7561 65.0095 44.7561 65.0096C44.7561 65.0096 44.7561 65.0096 44.7561 65.0096C44.756 65.0096 44.756 65.0096 44.756 65.0096C44.756 65.0096 44.756 65.0096 44.756 65.0096C44.756 65.0096 44.756 65.0096 44.756 65.0096C44.756 65.0096 44.756 65.0096 44.756 65.0096C44.756 65.0096 44.756 65.0096 44.756 65.0096C44.756 65.0096 44.756 65.0096 44.756 65.0096C44.756 65.0096 44.756 65.0096 44.756 65.0096C44.756 65.0096 44.756 65.0096 44.756 65.0096C44.756 65.0096 44.756 65.0096 44.756 65.0096C44.756 65.0096 44.756 65.0096 44.756 65.0096C44.756 65.0096 44.756 65.0096 44.756 65.0096C44.756 65.0096 44.756 65.0096 44.756 65.0096C44.756 65.0096 44.756 65.0096 44.756 65.0096C44.756 65.0096 44.756 65.0096 44.756 65.0096C44.756 65.0096 44.756 65.0096 44.756 65.0096C44.756 65.0096 44.756 65.0096 44.756 65.0096C44.756 65.0096 44.756 65.0096 44.756 65.0096C44.756 65.0096 44.756 65.0096 44.756 65.0096C44.756 65.0096 44.756 65.0096 44.756 65.0096C44.756 65.0096 44.756 65.0096 44.756 65.0096C44.756 65.0096 44.756 65.0096 44.756 65.0096C44.756 65.0096 44.756 65.0096 44.756 65.0096C44.756 65.0096 44.756 65.0096 44.756 65.0096C44.756 65.0096 44.756 65.0096 44.756 65.0096C44.756 65.0096 44.7559 65.0096 44.7559 65.0096C44.7559 65.0096 44.7559 65.0096 44.7559 65.0096C44.7559 65.0096 44.7559 65.0096 44.7559 65.0096C44.7559 65.0096 44.7559 65.0096 44.7559 65.0096C44.7559 65.0096 44.7559 65.0096 44.7559 65.0096C44.7559 65.0096 44.7559 65.0096 44.7559 65.0096C44.7559 65.0096 44.7559 65.0096 44.7559 65.0096C44.7559 65.0096 44.7559 65.0096 44.7559 65.0096C44.7559 65.0096 44.7559 65.0096 44.7559 65.0096C44.7559 65.0096 44.7559 65.0096 44.7559 65.0096C44.7559 65.0096 44.7559 65.0096 44.7559 65.0096C44.7559 65.0096 44.7559 65.0096 44.7559 65.0096C44.7559 65.0096 44.7559 65.0096 44.7559 65.0096C44.7559 65.0096 44.7559 65.0096 44.7559 65.0096C44.7559 65.0096 44.7559 65.0096 44.7559 65.0096C44.7559 65.0096 44.7559 65.0096 44.7559 65.0096C44.7559 65.0096 44.7559 65.0097 44.7559 65.0097C44.7559 65.0097 44.7559 65.0097 44.7559 65.0097C44.7559 65.0097 44.7559 65.0097 44.7559 65.0097C44.7559 65.0097 44.7559 65.0097 44.7559 65.0097C44.7559 65.0097 44.7559 65.0097 44.7559 65.0097C44.7559 65.0097 44.7559 65.0097 44.7559 65.0097C44.7559 65.0097 44.7559 65.0097 44.7559 65.0097C44.7559 65.0097 44.7559 65.0097 44.7559 65.0097C44.7559 65.0097 44.7559 65.0097 44.7558 65.0097C44.7558 65.0097 44.7558 65.0097 44.7558 65.0097C44.7558 65.0097 44.7558 65.0097 44.7558 65.0097C44.7558 65.0097 44.7558 65.0097 44.7558 65.0097C44.7558 65.0097 44.7558 65.0097 44.7558 65.0097C44.7558 65.0097 44.7558 65.0097 44.7558 65.0097C44.7558 65.0097 44.7558 65.0097 44.7558 65.0097C44.7558 65.0097 44.7558 65.0097 44.7558 65.0097C44.7558 65.0097 44.7558 65.0097 44.7558 65.0097C44.7558 65.0097 44.7558 65.0097 44.7558 65.0097C44.7558 65.0097 44.7558 65.0097 44.7558 65.0097C44.7558 65.0097 44.7558 65.0097 44.7558 65.0097C44.7558 65.0097 44.7558 65.0097 44.7558 65.0097C44.7558 65.0097 44.7558 65.0097 44.7558 65.0097C44.7558 65.0097 44.7558 65.0097 44.7558 65.0097C44.7558 65.0097 44.7558 65.0097 44.7558 65.0097C44.7558 65.0097 44.7558 65.0097 44.7558 65.0097C44.7558 65.0097 44.7558 65.0097 44.7558 65.0097C44.7558 65.0097 44.7558 65.0097 44.7558 65.0097C44.7558 65.0097 44.7558 65.0097 44.7558 65.0097C44.7558 65.0097 44.7558 65.0097 44.7558 65.0097C44.7558 65.0097 44.7558 65.0097 44.7558 65.0097C44.7558 65.0097 44.7558 65.0097 44.7558 65.0097C44.7558 65.0097 44.7558 65.0097 44.7558 65.0097C44.7558 65.0097 44.7558 65.0097 44.7558 65.0097C44.7558 65.0097 44.7558 65.0097 44.7557 65.0097C44.7557 65.0097 44.7557 65.0097 44.7557 65.0097C44.7557 65.0097 44.7557 65.0097 44.7557 65.0097C44.7557 65.0097 44.7557 65.0097 44.7557 65.0097C44.7557 65.0097 44.7557 65.0097 44.7557 65.0097C44.7557 65.0097 44.7557 65.0097 44.7557 65.0097C44.7557 65.0097 44.7557 65.0097 44.7557 65.0097C44.7557 65.0097 44.7557 65.0097 44.7557 65.0097C44.7557 65.0097 44.7557 65.0097 44.7557 65.0097C44.7557 65.0097 44.7557 65.0098 44.7557 65.0098C44.7557 65.0098 44.7557 65.0098 44.7557 65.0098C44.7557 65.0098 44.7557 65.0098 44.7557 65.0098C44.7557 65.0098 44.7557 65.0098 44.7557 65.0098C44.7557 65.0098 44.7557 65.0098 44.7557 65.0098C44.7557 65.0098 44.7557 65.0098 44.7557 65.0098C44.7557 65.0098 44.7557 65.0098 44.7557 65.0098C44.7557 65.0098 44.7557 65.0098 44.7557 65.0098C44.7557 65.0098 44.7557 65.0098 44.7557 65.0098C44.7557 65.0098 44.7557 65.0098 44.7557 65.0098C44.7557 65.0098 44.7557 65.0098 44.7557 65.0098C44.7557 65.0098 44.7557 65.0098 44.7557 65.0098C44.7557 65.0098 44.7557 65.0098 44.7557 65.0098C44.7557 65.0098 44.7557 65.0098 44.7557 65.0098C44.7557 65.0098 44.7557 65.0098 44.7557 65.0098C44.7557 65.0098 44.7557 65.0098 44.7557 65.0098C44.7556 65.0098 44.7556 65.0098 44.7556 65.0098C44.7556 65.0098 44.7556 65.0098 44.7556 65.0098C44.7556 65.0098 44.7556 65.0098 44.7556 65.0098C44.7556 65.0098 44.7556 65.0098 44.7556 65.0098C44.7556 65.0098 44.7556 65.0098 44.7556 65.0098C44.7556 65.0098 44.7556 65.0098 44.7556 65.0098C44.7556 65.0098 44.7556 65.0098 44.7556 65.0098C44.7556 65.0098 44.7556 65.0098 44.7556 65.0098C44.7556 65.0098 44.7556 65.0098 44.7556 65.0098C44.7556 65.0098 44.7556 65.0098 44.7556 65.0098C44.7556 65.0098 44.7556 65.0098 44.7556 65.0098C44.7556 65.0098 44.7556 65.0098 44.7556 65.0098C44.7556 65.0098 44.7556 65.0098 44.7556 65.0098C44.7556 65.0098 44.7556 65.0098 44.7556 65.0098C44.7556 65.0098 44.7556 65.0098 44.7556 65.0098C44.7556 65.0098 44.7556 65.0098 44.7556 65.0098C44.7556 65.0098 44.7556 65.0098 44.7556 65.0098C44.7556 65.0098 44.7556 65.0098 44.7556 65.0098C44.7556 65.0098 44.7556 65.0098 44.7556 65.0098C44.7556 65.0098 44.7556 65.0098 44.7556 65.0098C44.7556 65.0098 44.7556 65.0098 44.7556 65.0098C44.7556 65.0098 44.7556 65.0098 44.7556 65.0098C44.7556 65.0098 44.7556 65.0098 44.7556 65.0098C44.7556 65.0098 44.7556 65.0098 44.7556 65.0098C44.7556 65.0098 44.7556 65.0098 44.7556 65.0098C44.7555 65.0098 44.7555 65.0098 44.7555 65.0098C44.7555 65.0098 44.7555 65.0098 44.7555 65.0098C44.7555 65.0098 44.7555 65.0098 44.7555 65.0099C44.7555 65.0099 44.7555 65.0099 44.7555 65.0099C44.7555 65.0099 44.7555 65.0099 44.7555 65.0099C44.7555 65.0099 44.7555 65.0099 44.7555 65.0099C44.7555 65.0099 44.7555 65.0099 44.7555 65.0099C44.7555 65.0099 44.7555 65.0099 44.7555 65.0099C44.7555 65.0099 44.7555 65.0099 44.7555 65.0099C44.7555 65.0099 44.7555 65.0099 44.7555 65.0099C44.7555 65.0099 44.7555 65.0099 44.7555 65.0099C44.7555 65.0099 44.7555 65.0099 44.7555 65.0099C44.7555 65.0099 44.7555 65.0099 44.7555 65.0099C44.7555 65.0099 44.7555 65.0099 44.7555 65.0099C44.7555 65.0099 44.7555 65.0099 44.7555 65.0099C44.7555 65.0099 44.7555 65.0099 44.7555 65.0099C44.7555 65.0099 44.7555 65.0099 44.7555 65.0099C44.7555 65.0099 44.7555 65.0099 44.7555 65.0099C44.7555 65.0099 44.7555 65.0099 44.7555 65.0099C44.7555 65.0099 44.7555 65.0099 44.7555 65.0099C44.7555 65.0099 44.7555 65.0099 44.7555 65.0099C44.7555 65.0099 44.7555 65.0099 44.7555 65.0099C44.7555 65.0099 44.7555 65.0099 44.7555 65.0099C44.7555 65.0099 44.7555 65.0099 44.7555 65.0099C44.7555 65.0099 44.7554 65.0099 44.7554 65.0099C44.7554 65.0099 44.7554 65.0099 44.7554 65.0099C44.7554 65.0099 44.7554 65.0099 44.7554 65.0099C44.7554 65.0099 44.7554 65.0099 44.7554 65.0099C44.7554 65.0099 44.7554 65.0099 44.7554 65.0099C44.7554 65.0099 44.7554 65.0099 44.7554 65.0099C44.7554 65.0099 44.7554 65.0099 44.7554 65.0099C44.7554 65.0099 44.7554 65.0099 44.7554 65.0099C44.7554 65.0099 44.7554 65.0099 44.7554 65.0099C44.7554 65.0099 44.7554 65.0099 44.7554 65.0099C44.7554 65.0099 44.7554 65.0099 44.7554 65.0099C44.7554 65.0099 44.7554 65.0099 44.7554 65.0099C44.7554 65.0099 44.7554 65.0099 44.7554 65.0099C44.7554 65.0099 44.7554 65.0099 44.7554 65.0099C44.7554 65.0099 44.7554 65.0099 44.7554 65.0099C44.7554 65.0099 44.7554 65.0099 44.7554 65.0099C44.7554 65.0099 44.7554 65.0099 44.7554 65.0099C44.7554 65.0099 44.7554 65.0099 44.7554 65.0099C44.7554 65.0099 44.7554 65.0099 44.7554 65.0099C44.7554 65.0099 44.7554 65.0099 44.7554 65.0099C44.7554 65.0099 44.7554 65.0099 44.7554 65.01C44.7554 65.01 44.7554 65.01 44.7554 65.01C44.7554 65.01 44.7554 65.01 44.7554 65.01C44.7554 65.01 44.7554 65.01 44.7554 65.01C44.7554 65.01 44.7554 65.01 44.7554 65.01C44.7553 65.01 44.7553 65.01 44.7553 65.01C44.7553 65.01 44.7553 65.01 44.7553 65.01C44.7553 65.01 44.7553 65.01 44.7553 65.01C44.7553 65.01 44.7553 65.01 44.7553 65.01C44.7553 65.01 44.7553 65.01 44.7553 65.01C44.7553 65.01 44.7553 65.01 44.7553 65.01C44.7553 65.01 44.7553 65.01 44.7553 65.01C44.7553 65.01 44.7553 65.01 44.7553 65.01C44.7553 65.01 44.7553 65.01 44.7553 65.01C44.7553 65.01 44.7553 65.01 44.7553 65.01C44.7553 65.01 44.7553 65.01 44.7553 65.01C44.7553 65.01 44.7553 65.01 44.7553 65.01C44.7553 65.01 44.7553 65.01 44.7553 65.01C44.7553 65.01 44.7553 65.01 44.7553 65.01C44.7553 65.01 44.7553 65.01 44.7553 65.01C44.7553 65.01 44.7553 65.01 44.7553 65.01C44.7553 65.01 44.7553 65.01 44.7553 65.01C44.7553 65.01 44.7553 65.01 44.7553 65.01C44.7553 65.01 44.7553 65.01 44.7553 65.01C44.7553 65.01 44.7553 65.01 44.7553 65.01C44.7553 65.01 44.7553 65.01 44.7553 65.01C44.7553 65.01 44.7553 65.01 44.7553 65.01C44.7553 65.01 44.7553 65.01 44.7553 65.01C44.7553 65.01 44.7553 65.01 44.7553 65.01C44.7553 65.01 44.7552 65.01 44.7552 65.01C44.7552 65.01 44.7552 65.01 44.7552 65.01C44.7552 65.01 44.7552 65.01 44.7552 65.01C44.7552 65.01 44.7552 65.01 44.7552 65.01C44.7552 65.01 44.7552 65.01 44.7552 65.01C44.7552 65.01 44.7552 65.01 44.7552 65.01C44.7552 65.01 44.7552 65.01 44.7552 65.01C44.7552 65.01 44.7552 65.01 44.7552 65.01C44.7552 65.01 44.7552 65.01 44.7552 65.01C44.7552 65.01 44.7552 65.01 44.7552 65.01C44.7552 65.01 44.7552 65.01 44.7552 65.01C44.7552 65.01 44.7552 65.01 44.7552 65.01C44.7552 65.01 44.7552 65.01 44.7552 65.01C44.7552 65.01 44.7552 65.0101 44.7552 65.0101C44.7552 65.0101 44.7552 65.0101 44.7552 65.0101C44.7552 65.0101 44.7552 65.0101 44.7552 65.0101C44.7552 65.0101 44.7552 65.0101 44.7552 65.0101C44.7552 65.0101 44.7552 65.0101 44.7552 65.0101C44.7552 65.0101 44.7552 65.0101 44.7552 65.0101C44.7552 65.0101 44.7552 65.0101 44.7552 65.0101C44.7552 65.0101 44.7552 65.0101 44.7552 65.0101C44.7552 65.0101 44.7552 65.0101 44.7552 65.0101C44.7552 65.0101 44.7552 65.0101 44.7552 65.0101C44.7552 65.0101 44.7552 65.0101 44.7552 65.0101C44.7552 65.0101 44.7552 65.0101 44.7552 65.0101C44.7551 65.0101 44.7551 65.0101 44.7551 65.0101C44.7551 65.0101 44.7551 65.0101 44.7551 65.0101C44.7551 65.0101 44.7551 65.0101 44.7551 65.0101C44.7551 65.0101 44.7551 65.0101 44.7551 65.0101C44.7551 65.0101 44.7551 65.0101 44.7551 65.0101C44.7551 65.0101 44.7551 65.0101 44.7551 65.0101C44.7551 65.0101 44.7551 65.0101 44.7551 65.0101C44.7551 65.0101 44.7551 65.0101 44.7551 65.0101C44.7551 65.0101 44.7551 65.0101 44.7551 65.0101C44.7551 65.0101 44.7551 65.0101 44.7551 65.0101C44.7551 65.0101 44.7551 65.0101 44.7551 65.0101C44.7551 65.0101 44.7551 65.0101 44.7551 65.0101C44.7551 65.0101 44.7551 65.0101 44.7551 65.0101C44.7551 65.0101 44.7551 65.0101 44.7551 65.0101C44.7551 65.0101 44.7551 65.0101 44.7551 65.0101C44.7551 65.0101 44.7551 65.0101 44.7551 65.0101C44.7551 65.0101 44.7551 65.0101 44.7551 65.0101C44.7551 65.0101 44.7551 65.0101 44.7551 65.0101C44.7551 65.0101 44.7551 65.0101 44.7551 65.0101C44.7551 65.0101 44.7551 65.0101 44.7551 65.0101C44.7551 65.0101 44.7551 65.0101 44.7551 65.0101C44.7551 65.0101 44.7551 65.0101 44.7551 65.0101C44.7551 65.0101 44.7551 65.0101 44.7551 65.0101C44.7551 65.0101 44.7551 65.0101 44.7551 65.0101C44.7551 65.0101 44.7551 65.0101 44.755 65.0101C44.755 65.0101 44.755 65.0101 44.755 65.0101C44.755 65.0101 44.755 65.0101 44.755 65.0101C44.755 65.0101 44.755 65.0101 44.755 65.0101C44.755 65.0101 44.755 65.0101 44.755 65.0101C44.755 65.0101 44.755 65.0101 44.755 65.0101C44.755 65.0101 44.755 65.0102 44.755 65.0102C44.755 65.0102 44.755 65.0102 44.755 65.0102C44.755 65.0102 44.755 65.0102 44.755 65.0102C44.755 65.0102 44.755 65.0102 44.755 65.0102C44.755 65.0102 44.755 65.0102 44.755 65.0102C44.755 65.0102 44.755 65.0102 44.755 65.0102C44.755 65.0102 44.755 65.0102 44.755 65.0102C44.755 65.0102 44.755 65.0102 44.755 65.0102C44.755 65.0102 44.755 65.0102 44.755 65.0102C44.755 65.0102 44.755 65.0102 44.755 65.0102C44.755 65.0102 44.755 65.0102 44.755 65.0102C44.755 65.0102 44.755 65.0102 44.755 65.0102C44.755 65.0102 44.755 65.0102 44.755 65.0102C44.755 65.0102 44.755 65.0102 44.755 65.0102C44.755 65.0102 44.755 65.0102 44.755 65.0102C44.755 65.0102 44.755 65.0102 44.755 65.0102C44.755 65.0102 44.755 65.0102 44.755 65.0102C44.755 65.0102 44.755 65.0102 44.755 65.0102C44.755 65.0102 44.755 65.0102 44.755 65.0102C44.7549 65.0102 44.7549 65.0102 44.7549 65.0102C44.7549 65.0102 44.7549 65.0102 44.7549 65.0102C44.7549 65.0102 44.7549 65.0102 44.7549 65.0102C44.7549 65.0102 44.7549 65.0102 44.7549 65.0102C44.7549 65.0102 44.7549 65.0102 44.7549 65.0102C44.7549 65.0102 44.7549 65.0102 44.7549 65.0102C44.7549 65.0102 44.7549 65.0102 44.7549 65.0102C44.7549 65.0102 44.7549 65.0102 44.7549 65.0102C44.7549 65.0102 44.7549 65.0102 44.7549 65.0102C44.7549 65.0102 44.7549 65.0102 44.7549 65.0102C44.7549 65.0102 44.7549 65.0102 44.7549 65.0102C44.7549 65.0102 44.7549 65.0102 44.7549 65.0102C44.7549 65.0102 44.7549 65.0102 44.7549 65.0102C44.7549 65.0102 44.7549 65.0102 44.7549 65.0102C44.7549 65.0102 44.7549 65.0102 44.7549 65.0102C44.7549 65.0102 44.7549 65.0102 44.7549 65.0102C44.7549 65.0102 44.7549 65.0102 44.7549 65.0102C44.7549 65.0102 44.7549 65.0102 44.7549 65.0102C44.7549 65.0102 44.7549 65.0102 44.7549 65.0102C44.7549 65.0102 44.7549 65.0102 44.7549 65.0102C44.7549 65.0102 44.7549 65.0102 44.7549 65.0102C44.7549 65.0102 44.7549 65.0102 44.7549 65.0102C44.7549 65.0102 44.7549 65.0102 44.7549 65.0102C44.7549 65.0103 44.7549 65.0103 44.7549 65.0103C44.7549 65.0103 44.7549 65.0103 44.7549 65.0103C44.7548 65.0103 44.7548 65.0103 44.7548 65.0103C44.7548 65.0103 44.7548 65.0103 44.7548 65.0103C44.7548 65.0103 44.7548 65.0103 44.7548 65.0103C44.7548 65.0103 44.7548 65.0103 44.7548 65.0103C44.7548 65.0103 44.7548 65.0103 44.7548 65.0103C44.7548 65.0103 44.7548 65.0103 44.7548 65.0103C44.7548 65.0103 44.7548 65.0103 44.7548 65.0103C44.7548 65.0103 44.7548 65.0103 44.7548 65.0103C44.7548 65.0103 44.7548 65.0103 44.7548 65.0103C44.7548 65.0103 44.7548 65.0103 44.7548 65.0103C44.7548 65.0103 44.7548 65.0103 44.7548 65.0103C44.7548 65.0103 44.7548 65.0103 44.7548 65.0103C44.7548 65.0103 44.7548 65.0103 44.7548 65.0103C44.7548 65.0103 44.7548 65.0103 44.7548 65.0103C44.7548 65.0103 44.7548 65.0103 44.7548 65.0103C44.7548 65.0103 44.7548 65.0103 44.7548 65.0103C44.7548 65.0103 44.7548 65.0103 44.7548 65.0103C44.7548 65.0103 44.7548 65.0103 44.7548 65.0103C44.7548 65.0103 44.7548 65.0103 44.7548 65.0103C44.7548 65.0103 44.7548 65.0103 44.7548 65.0103L46.2646 67.6027C46.2646 67.6027 46.2646 67.6027 46.2646 67.6027H46.2646L46.2646 67.6027H46.2646C46.2646 67.6027 46.2646 67.6027 46.2646 67.6027C46.2646 67.6027 46.2646 67.6027 46.2646 67.6027C46.2646 67.6027 46.2646 67.6027 46.2646 67.6027C46.2646 67.6026 46.2646 67.6026 46.2646 67.6026C46.2646 67.6026 46.2646 67.6026 46.2646 67.6026C46.2646 67.6026 46.2646 67.6026 46.2647 67.6026C46.2647 67.6026 46.2647 67.6026 46.2647 67.6026C46.2647 67.6026 46.2647 67.6026 46.2647 67.6026C46.2647 67.6026 46.2647 67.6026 46.2647 67.6026C46.2647 67.6026 46.2647 67.6026 46.2647 67.6026H46.2647L46.2647 67.6026C46.2647 67.6026 46.2647 67.6026 46.2647 67.6026H46.2647L46.2647 67.6026C46.2647 67.6026 46.2647 67.6026 46.2647 67.6026C46.2647 67.6026 46.2647 67.6026 46.2647 67.6026C46.2647 67.6026 46.2647 67.6026 46.2647 67.6026C46.2647 67.6026 46.2647 67.6026 46.2647 67.6026C46.2647 67.6026 46.2647 67.6026 46.2647 67.6026C46.2647 67.6026 46.2647 67.6026 46.2647 67.6026C46.2647 67.6026 46.2647 67.6026 46.2647 67.6026C46.2647 67.6026 46.2647 67.6026 46.2647 67.6026C46.2647 67.6026 46.2647 67.6026 46.2647 67.6026C46.2647 67.6026 46.2647 67.6026 46.2647 67.6026C46.2647 67.6026 46.2647 67.6026 46.2647 67.6026H46.2647L46.2647 67.6026H46.2647C46.2647 67.6026 46.2647 67.6026 46.2647 67.6026C46.2648 67.6026 46.2648 67.6026 46.2648 67.6026C46.2648 67.6026 46.2648 67.6026 46.2648 67.6026C46.2648 67.6026 46.2648 67.6026 46.2648 67.6026C46.2648 67.6026 46.2648 67.6026 46.2648 67.6026C46.2648 67.6026 46.2648 67.6026 46.2648 67.6026C46.2648 67.6026 46.2648 67.6026 46.2648 67.6026C46.2648 67.6026 46.2648 67.6026 46.2648 67.6026C46.2648 67.6026 46.2648 67.6026 46.2648 67.6026C46.2648 67.6026 46.2648 67.6026 46.2648 67.6026H46.2648C46.2648 67.6026 46.2648 67.6026 46.2648 67.6026C46.2648 67.6026 46.2648 67.6026 46.2648 67.6026H46.2648L46.2648 67.6026H46.2648C46.2648 67.6026 46.2648 67.6026 46.2648 67.6026C46.2648 67.6026 46.2648 67.6026 46.2648 67.6025C46.2648 67.6025 46.2648 67.6025 46.2648 67.6025C46.2648 67.6025 46.2648 67.6025 46.2648 67.6025C46.2648 67.6025 46.2648 67.6025 46.2648 67.6025C46.2648 67.6025 46.2648 67.6025 46.2648 67.6025C46.2648 67.6025 46.2648 67.6025 46.2648 67.6025C46.2648 67.6025 46.2648 67.6025 46.2648 67.6025C46.2648 67.6025 46.2648 67.6025 46.2648 67.6025C46.2648 67.6025 46.2649 67.6025 46.2649 67.6025H46.2649L46.2649 67.6025H46.2649C46.2649 67.6025 46.2649 67.6025 46.2649 67.6025L46.2649 67.6025C46.2649 67.6025 46.2649 67.6025 46.2649 67.6025C46.2649 67.6025 46.2649 67.6025 46.2649 67.6025C46.2649 67.6025 46.2649 67.6025 46.2649 67.6025C46.2649 67.6025 46.2649 67.6025 46.2649 67.6025C46.2649 67.6025 46.2649 67.6025 46.2649 67.6025C46.2649 67.6025 46.2649 67.6025 46.2649 67.6025C46.2649 67.6025 46.2649 67.6025 46.2649 67.6025C46.2649 67.6025 46.2649 67.6025 46.2649 67.6025C46.2649 67.6025 46.2649 67.6025 46.2649 67.6025C46.2649 67.6025 46.2649 67.6025 46.2649 67.6025C46.2649 67.6025 46.2649 67.6025 46.2649 67.6025H46.2649L46.2649 67.6025H46.2649C46.2649 67.6025 46.2649 67.6025 46.2649 67.6025C46.2649 67.6025 46.2649 67.6025 46.2649 67.6025C46.2649 67.6025 46.2649 67.6025 46.2649 67.6025C46.2649 67.6025 46.2649 67.6025 46.2649 67.6025C46.2649 67.6025 46.2649 67.6025 46.2649 67.6025C46.2649 67.6025 46.2649 67.6025 46.265 67.6025C46.265 67.6025 46.265 67.6025 46.265 67.6025C46.265 67.6025 46.265 67.6025 46.265 67.6025C46.265 67.6025 46.265 67.6025 46.265 67.6025C46.265 67.6025 46.265 67.6025 46.265 67.6025C46.265 67.6025 46.265 67.6025 46.265 67.6025L46.265 67.6025H46.265C46.265 67.6025 46.265 67.6025 46.265 67.6025L46.265 67.6024H46.265C46.265 67.6024 46.265 67.6024 46.265 67.6024C46.265 67.6024 46.265 67.6024 46.265 67.6024C46.265 67.6024 46.265 67.6024 46.265 67.6024C46.265 67.6024 46.265 67.6024 46.265 67.6024C46.265 67.6024 46.265 67.6024 46.265 67.6024C46.265 67.6024 46.265 67.6024 46.265 67.6024C46.265 67.6024 46.265 67.6024 46.265 67.6024C46.265 67.6024 46.265 67.6024 46.265 67.6024C46.265 67.6024 46.265 67.6024 46.265 67.6024C46.265 67.6024 46.265 67.6024 46.265 67.6024H46.265L46.265 67.6024H46.265C46.265 67.6024 46.265 67.6024 46.265 67.6024C46.265 67.6024 46.2651 67.6024 46.2651 67.6024C46.2651 67.6024 46.2651 67.6024 46.2651 67.6024C46.2651 67.6024 46.2651 67.6024 46.2651 67.6024C46.2651 67.6024 46.2651 67.6024 46.2651 67.6024C46.2651 67.6024 46.2651 67.6024 46.2651 67.6024C46.2651 67.6024 46.2651 67.6024 46.2651 67.6024C46.2651 67.6024 46.2651 67.6024 46.2651 67.6024C46.2651 67.6024 46.2651 67.6024 46.2651 67.6024C46.2651 67.6024 46.2651 67.6024 46.2651 67.6024C46.2651 67.6024 46.2651 67.6024 46.2651 67.6024C46.2651 67.6024 46.2651 67.6024 46.2651 67.6024H46.2651C46.2651 67.6024 46.2651 67.6024 46.2651 67.6024L46.2651 67.6024H46.2651C46.2651 67.6024 46.2651 67.6024 46.2651 67.6024C46.2651 67.6024 46.2651 67.6024 46.2651 67.6024C46.2651 67.6024 46.2651 67.6024 46.2651 67.6024C46.2651 67.6024 46.2651 67.6024 46.2651 67.6024C46.2651 67.6024 46.2651 67.6024 46.2651 67.6024C46.2651 67.6024 46.2651 67.6024 46.2651 67.6024C46.2651 67.6024 46.2651 67.6024 46.2651 67.6024C46.2651 67.6024 46.2651 67.6024 46.2651 67.6024C46.2651 67.6024 46.2651 67.6024 46.2651 67.6024C46.2651 67.6024 46.2651 67.6024 46.2652 67.6024C46.2652 67.6024 46.2652 67.6024 46.2652 67.6024L46.2652 67.6023H46.2652C46.2652 67.6023 46.2652 67.6023 46.2652 67.6023C46.2652 67.6023 46.2652 67.6023 46.2652 67.6023H46.2652C46.2652 67.6023 46.2652 67.6023 46.2652 67.6023C46.2652 67.6023 46.2652 67.6023 46.2652 67.6023C46.2652 67.6023 46.2652 67.6023 46.2652 67.6023C46.2652 67.6023 46.2652 67.6023 46.2652 67.6023C46.2652 67.6023 46.2652 67.6023 46.2652 67.6023C46.2652 67.6023 46.2652 67.6023 46.2652 67.6023C46.2652 67.6023 46.2652 67.6023 46.2652 67.6023C46.2652 67.6023 46.2652 67.6023 46.2652 67.6023C46.2652 67.6023 46.2652 67.6023 46.2652 67.6023C46.2652 67.6023 46.2652 67.6023 46.2652 67.6023H46.2652L46.2652 67.6023H46.2652C46.2652 67.6023 46.2652 67.6023 46.2652 67.6023C46.2652 67.6023 46.2652 67.6023 46.2652 67.6023C46.2652 67.6023 46.2652 67.6023 46.2652 67.6023C46.2652 67.6023 46.2652 67.6023 46.2652 67.6023C46.2652 67.6023 46.2652 67.6023 46.2652 67.6023C46.2653 67.6023 46.2653 67.6023 46.2653 67.6023C46.2653 67.6023 46.2653 67.6023 46.2653 67.6023C46.2653 67.6023 46.2653 67.6023 46.2653 67.6023C46.2653 67.6023 46.2653 67.6023 46.2653 67.6023C46.2653 67.6023 46.2653 67.6023 46.2653 67.6023C46.2653 67.6023 46.2653 67.6023 46.2653 67.6023C46.2653 67.6023 46.2653 67.6023 46.2653 67.6023H46.2653C46.2653 67.6023 46.2653 67.6023 46.2653 67.6023C46.2653 67.6023 46.2653 67.6023 46.2653 67.6023H46.2653C46.2653 67.6023 46.2653 67.6023 46.2653 67.6023C46.2653 67.6023 46.2653 67.6023 46.2653 67.6023C46.2653 67.6023 46.2653 67.6023 46.2653 67.6023C46.2653 67.6023 46.2653 67.6023 46.2653 67.6023C46.2653 67.6023 46.2653 67.6023 46.2653 67.6023C46.2653 67.6023 46.2653 67.6023 46.2653 67.6023C46.2653 67.6023 46.2653 67.6023 46.2653 67.6023C46.2653 67.6023 46.2653 67.6023 46.2653 67.6023C46.2653 67.6023 46.2653 67.6022 46.2653 67.6022C46.2653 67.6022 46.2653 67.6022 46.2653 67.6022C46.2653 67.6022 46.2653 67.6022 46.2653 67.6022L46.2653 67.6022H46.2653C46.2653 67.6022 46.2654 67.6022 46.2654 67.6022C46.2654 67.6022 46.2654 67.6022 46.2654 67.6022H46.2654C46.2654 67.6022 46.2654 67.6022 46.2654 67.6022C46.2654 67.6022 46.2654 67.6022 46.2654 67.6022C46.2654 67.6022 46.2654 67.6022 46.2654 67.6022C46.2654 67.6022 46.2654 67.6022 46.2654 67.6022C46.2654 67.6022 46.2654 67.6022 46.2654 67.6022C46.2654 67.6022 46.2654 67.6022 46.2654 67.6022C46.2654 67.6022 46.2654 67.6022 46.2654 67.6022C46.2654 67.6022 46.2654 67.6022 46.2654 67.6022C46.2654 67.6022 46.2654 67.6022 46.2654 67.6022C46.2654 67.6022 46.2654 67.6022 46.2654 67.6022C46.2654 67.6022 46.2654 67.6022 46.2654 67.6022C46.2654 67.6022 46.2654 67.6022 46.2654 67.6022H46.2654C46.2654 67.6022 46.2654 67.6022 46.2654 67.6022C46.2654 67.6022 46.2654 67.6022 46.2654 67.6022C46.2654 67.6022 46.2654 67.6022 46.2654 67.6022C46.2654 67.6022 46.2654 67.6022 46.2654 67.6022C46.2654 67.6022 46.2654 67.6022 46.2654 67.6022C46.2654 67.6022 46.2654 67.6022 46.2654 67.6022C46.2654 67.6022 46.2654 67.6022 46.2654 67.6022C46.2654 67.6022 46.2654 67.6022 46.2654 67.6022C46.2654 67.6022 46.2654 67.6022 46.2654 67.6022C46.2654 67.6022 46.2654 67.6022 46.2655 67.6022C46.2655 67.6022 46.2655 67.6022 46.2655 67.6022C46.2655 67.6022 46.2655 67.6022 46.2655 67.6022H46.2655C46.2655 67.6022 46.2655 67.6022 46.2655 67.6022C46.2655 67.6022 46.2655 67.6022 46.2655 67.6022H46.2655L46.2655 67.6022C46.2655 67.6022 46.2655 67.6022 46.2655 67.6022C46.2655 67.6022 46.2655 67.6022 46.2655 67.6022C46.2655 67.6022 46.2655 67.6022 46.2655 67.6022C46.2655 67.6022 46.2655 67.6022 46.2655 67.6022C46.2655 67.6021 46.2655 67.6021 46.2655 67.6021C46.2655 67.6021 46.2655 67.6021 46.2655 67.6021C46.2655 67.6021 46.2655 67.6021 46.2655 67.6021C46.2655 67.6021 46.2655 67.6021 46.2655 67.6021C46.2655 67.6021 46.2655 67.6021 46.2655 67.6021C46.2655 67.6021 46.2655 67.6021 46.2655 67.6021L46.2655 67.6021H46.2655C46.2655 67.6021 46.2655 67.6021 46.2655 67.6021C46.2655 67.6021 46.2655 67.6021 46.2655 67.6021H46.2655C46.2655 67.6021 46.2655 67.6021 46.2655 67.6021C46.2655 67.6021 46.2655 67.6021 46.2655 67.6021C46.2656 67.6021 46.2656 67.6021 46.2656 67.6021C46.2656 67.6021 46.2656 67.6021 46.2656 67.6021C46.2656 67.6021 46.2656 67.6021 46.2656 67.6021C46.2656 67.6021 46.2656 67.6021 46.2656 67.6021C46.2656 67.6021 46.2656 67.6021 46.2656 67.6021C46.2656 67.6021 46.2656 67.6021 46.2656 67.6021C46.2656 67.6021 46.2656 67.6021 46.2656 67.6021C46.2656 67.6021 46.2656 67.6021 46.2656 67.6021C46.2656 67.6021 46.2656 67.6021 46.2656 67.6021C46.2656 67.6021 46.2656 67.6021 46.2656 67.6021H46.2656L46.2656 67.6021C46.2656 67.6021 46.2656 67.6021 46.2656 67.6021C46.2656 67.6021 46.2656 67.6021 46.2656 67.6021C46.2656 67.6021 46.2656 67.6021 46.2656 67.6021C46.2656 67.6021 46.2656 67.6021 46.2656 67.6021C46.2656 67.6021 46.2656 67.6021 46.2656 67.6021C46.2656 67.6021 46.2656 67.6021 46.2656 67.6021C46.2656 67.6021 46.2656 67.6021 46.2656 67.6021C46.2656 67.6021 46.2656 67.6021 46.2656 67.6021C46.2656 67.6021 46.2656 67.6021 46.2656 67.6021C46.2656 67.6021 46.2656 67.6021 46.2656 67.6021C46.2656 67.6021 46.2656 67.6021 46.2656 67.6021H46.2656C46.2656 67.6021 46.2657 67.6021 46.2657 67.6021C46.2657 67.6021 46.2657 67.6021 46.2657 67.6021H46.2657L46.2657 67.6021H46.2657C46.2657 67.6021 46.2657 67.6021 46.2657 67.6021C46.2657 67.6021 46.2657 67.6021 46.2657 67.602C46.2657 67.602 46.2657 67.602 46.2657 67.602C46.2657 67.602 46.2657 67.602 46.2657 67.602C46.2657 67.602 46.2657 67.602 46.2657 67.602C46.2657 67.602 46.2657 67.602 46.2657 67.602C46.2657 67.602 46.2657 67.602 46.2657 67.602C46.2657 67.602 46.2657 67.602 46.2657 67.602C46.2657 67.602 46.2657 67.602 46.2657 67.602C46.2657 67.602 46.2657 67.602 46.2657 67.602H46.2657L46.2657 67.602C46.2657 67.602 46.2657 67.602 46.2657 67.602H46.2657L46.2657 67.602C46.2657 67.602 46.2657 67.602 46.2657 67.602C46.2657 67.602 46.2657 67.602 46.2657 67.602C46.2657 67.602 46.2657 67.602 46.2657 67.602C46.2657 67.602 46.2657 67.602 46.2657 67.602C46.2657 67.602 46.2657 67.602 46.2658 67.602C46.2658 67.602 46.2658 67.602 46.2658 67.602C46.2658 67.602 46.2658 67.602 46.2658 67.602C46.2658 67.602 46.2658 67.602 46.2658 67.602C46.2658 67.602 46.2658 67.602 46.2658 67.602C46.2658 67.602 46.2658 67.602 46.2658 67.602C46.2658 67.602 46.2658 67.602 46.2658 67.602H46.2658L46.2658 67.602H46.2658C46.2658 67.602 46.2658 67.602 46.2658 67.602C46.2658 67.602 46.2658 67.602 46.2658 67.602C46.2658 67.602 46.2658 67.602 46.2658 67.602C46.2658 67.602 46.2658 67.602 46.2658 67.602C46.2658 67.602 46.2658 67.602 46.2658 67.602C46.2658 67.602 46.2658 67.602 46.2658 67.602C46.2658 67.602 46.2658 67.602 46.2658 67.602C46.2658 67.602 46.2658 67.602 46.2658 67.602C46.2658 67.602 46.2658 67.602 46.2658 67.602C46.2658 67.602 46.2658 67.602 46.2658 67.602H46.2658C46.2658 67.602 46.2658 67.602 46.2658 67.602C46.2658 67.602 46.2658 67.602 46.2658 67.602H46.2658L46.2658 67.6019H46.2659C46.2659 67.6019 46.2659 67.6019 46.2659 67.6019C46.2659 67.6019 46.2659 67.6019 46.2659 67.6019C46.2659 67.6019 46.2659 67.6019 46.2659 67.6019C46.2659 67.6019 46.2659 67.6019 46.2659 67.6019C46.2659 67.6019 46.2659 67.6019 46.2659 67.6019C46.2659 67.6019 46.2659 67.6019 46.2659 67.6019C46.2659 67.6019 46.2659 67.6019 46.2659 67.6019C46.2659 67.6019 46.2659 67.6019 46.2659 67.6019C46.2659 67.6019 46.2659 67.6019 46.2659 67.6019C46.2659 67.6019 46.2659 67.6019 46.2659 67.6019H46.2659L46.2659 67.6019H46.2659C46.2659 67.6019 46.2659 67.6019 46.2659 67.6019L46.2659 67.6019C46.2659 67.6019 46.2659 67.6019 46.2659 67.6019C46.2659 67.6019 46.2659 67.6019 46.2659 67.6019C46.2659 67.6019 46.2659 67.6019 46.2659 67.6019C46.2659 67.6019 46.2659 67.6019 46.2659 67.6019C46.2659 67.6019 46.2659 67.6019 46.2659 67.6019C46.2659 67.6019 46.2659 67.6019 46.2659 67.6019C46.2659 67.6019 46.2659 67.6019 46.2659 67.6019C46.2659 67.6019 46.2659 67.6019 46.2659 67.6019C46.2659 67.6019 46.2659 67.6019 46.2659 67.6019C46.2659 67.6019 46.266 67.6019 46.266 67.6019C46.266 67.6019 46.266 67.6019 46.266 67.6019H46.266L46.266 67.6019H46.266C46.266 67.6019 46.266 67.6019 46.266 67.6019C46.266 67.6019 46.266 67.6019 46.266 67.6019C46.266 67.6019 46.266 67.6019 46.266 67.6019C46.266 67.6019 46.266 67.6019 46.266 67.6019C46.266 67.6019 46.266 67.6019 46.266 67.6019C46.266 67.6019 46.266 67.6019 46.266 67.6019C46.266 67.6019 46.266 67.6019 46.266 67.6019C46.266 67.6019 46.266 67.6019 46.266 67.6019C46.266 67.6019 46.266 67.6019 46.266 67.6019C46.266 67.6019 46.266 67.6019 46.266 67.6019C46.266 67.6019 46.266 67.6019 46.266 67.6019L46.266 67.6018H46.266C46.266 67.6018 46.266 67.6018 46.266 67.6018L46.266 67.6018H46.266C46.266 67.6018 46.266 67.6018 46.266 67.6018C46.266 67.6018 46.266 67.6018 46.266 67.6018C46.266 67.6018 46.266 67.6018 46.266 67.6018C46.266 67.6018 46.266 67.6018 46.266 67.6018C46.2661 67.6018 46.2661 67.6018 46.2661 67.6018C46.2661 67.6018 46.2661 67.6018 46.2661 67.6018C46.2661 67.6018 46.2661 67.6018 46.2661 67.6018C46.2661 67.6018 46.2661 67.6018 46.2661 67.6018C46.2661 67.6018 46.2661 67.6018 46.2661 67.6018C46.2661 67.6018 46.2661 67.6018 46.2661 67.6018H46.2661L46.2661 67.6018H46.2661C46.2661 67.6018 46.2661 67.6018 46.2661 67.6018C46.2661 67.6018 46.2661 67.6018 46.2661 67.6018C46.2661 67.6018 46.2661 67.6018 46.2661 67.6018C46.2661 67.6018 46.2661 67.6018 46.2661 67.6018C46.2661 67.6018 46.2661 67.6018 46.2661 67.6018C46.2661 67.6018 46.2661 67.6018 46.2661 67.6018C46.2661 67.6018 46.2661 67.6018 46.2661 67.6018C46.2661 67.6018 46.2661 67.6018 46.2661 67.6018C46.2661 67.6018 46.2661 67.6018 46.2661 67.6018C46.2661 67.6018 46.2661 67.6018 46.2661 67.6018C46.2661 67.6018 46.2661 67.6018 46.2661 67.6018C46.2661 67.6018 46.2661 67.6018 46.2661 67.6018H46.2661C46.2661 67.6018 46.2661 67.6018 46.2661 67.6018L46.2661 67.6018H46.2662C46.2662 67.6018 46.2662 67.6018 46.2662 67.6018C46.2662 67.6018 46.2662 67.6018 46.2662 67.6018C46.2662 67.6018 46.2662 67.6018 46.2662 67.6018C46.2662 67.6018 46.2662 67.6018 46.2662 67.6018C46.2662 67.6018 46.2662 67.6018 46.2662 67.6018C46.2662 67.6018 46.2662 67.6018 46.2662 67.6018C46.2662 67.6018 46.2662 67.6018 46.2662 67.6018C46.2662 67.6018 46.2662 67.6018 46.2662 67.6018C46.2662 67.6017 46.2662 67.6017 46.2662 67.6017C46.2662 67.6017 46.2662 67.6017 46.2662 67.6017C46.2662 67.6017 46.2662 67.6017 46.2662 67.6017L46.2662 67.6017H46.2662C46.2662 67.6017 46.2662 67.6017 46.2662 67.6017C46.2662 67.6017 46.2662 67.6017 46.2662 67.6017H46.2662C46.2662 67.6017 46.2662 67.6017 46.2662 67.6017C46.2662 67.6017 46.2662 67.6017 46.2662 67.6017C46.2662 67.6017 46.2662 67.6017 46.2662 67.6017C46.2662 67.6017 46.2662 67.6017 46.2662 67.6017C46.2662 67.6017 46.2662 67.6017 46.2662 67.6017C46.2662 67.6017 46.2662 67.6017 46.2662 67.6017C46.2662 67.6017 46.2662 67.6017 46.2662 67.6017C46.2662 67.6017 46.2662 67.6017 46.2663 67.6017C46.2663 67.6017 46.2663 67.6017 46.2663 67.6017C46.2663 67.6017 46.2663 67.6017 46.2663 67.6017H46.2663L46.2663 67.6017H46.2663C46.2663 67.6017 46.2663 67.6017 46.2663 67.6017C46.2663 67.6017 46.2663 67.6017 46.2663 67.6017C46.2663 67.6017 46.2663 67.6017 46.2663 67.6017C46.2663 67.6017 46.2663 67.6017 46.2663 67.6017C46.2663 67.6017 46.2663 67.6017 46.2663 67.6017C46.2663 67.6017 46.2663 67.6017 46.2663 67.6017C46.2663 67.6017 46.2663 67.6017 46.2663 67.6017C46.2663 67.6017 46.2663 67.6017 46.2663 67.6017C46.2663 67.6017 46.2663 67.6017 46.2663 67.6017C46.2663 67.6017 46.2663 67.6017 46.2663 67.6017C46.2663 67.6017 46.2663 67.6017 46.2663 67.6017C46.2663 67.6017 46.2663 67.6017 46.2663 67.6017H46.2663C46.2663 67.6017 46.2663 67.6017 46.2663 67.6017C46.2663 67.6017 46.2663 67.6017 46.2663 67.6017H46.2663C46.2663 67.6017 46.2663 67.6017 46.2663 67.6017C46.2663 67.6017 46.2663 67.6017 46.2663 67.6017C46.2663 67.6017 46.2663 67.6017 46.2663 67.6017C46.2663 67.6017 46.2663 67.6017 46.2663 67.6017C46.2664 67.6017 46.2664 67.6017 46.2664 67.6017C46.2664 67.6017 46.2664 67.6017 46.2664 67.6017C46.2664 67.6017 46.2664 67.6017 46.2664 67.6016C46.2664 67.6016 46.2664 67.6016 46.2664 67.6016C46.2664 67.6016 46.2664 67.6016 46.2664 67.6016C46.2664 67.6016 46.2664 67.6016 46.2664 67.6016C46.2664 67.6016 46.2664 67.6016 46.2664 67.6016L46.2664 67.6016H46.2664C46.2664 67.6016 46.2664 67.6016 46.2664 67.6016C46.2664 67.6016 46.2664 67.6016 46.2664 67.6016H46.2664C46.2664 67.6016 46.2664 67.6016 46.2664 67.6016C46.2664 67.6016 46.2664 67.6016 46.2664 67.6016C46.2664 67.6016 46.2664 67.6016 46.2664 67.6016C46.2664 67.6016 46.2664 67.6016 46.2664 67.6016C46.2664 67.6016 46.2664 67.6016 46.2664 67.6016C46.2664 67.6016 46.2664 67.6016 46.2664 67.6016C46.2664 67.6016 46.2664 67.6016 46.2664 67.6016C46.2664 67.6016 46.2664 67.6016 46.2664 67.6016C46.2664 67.6016 46.2664 67.6016 46.2664 67.6016C46.2664 67.6016 46.2664 67.6016 46.2664 67.6016C46.2664 67.6016 46.2664 67.6016 46.2664 67.6016C46.2664 67.6016 46.2664 67.6016 46.2664 67.6016H46.2665C46.2665 67.6016 46.2665 67.6016 46.2665 67.6016C46.2665 67.6016 46.2665 67.6016 46.2665 67.6016C46.2665 67.6016 46.2665 67.6016 46.2665 67.6016C46.2665 67.6016 46.2665 67.6016 46.2665 67.6016C46.2665 67.6016 46.2665 67.6016 46.2665 67.6016C46.2665 67.6016 46.2665 67.6016 46.2665 67.6016C46.2665 67.6016 46.2665 67.6016 46.2665 67.6016C46.2665 67.6016 46.2665 67.6016 46.2665 67.6016C46.2665 67.6016 46.2665 67.6016 46.2665 67.6016C46.2665 67.6016 46.2665 67.6016 46.2665 67.6016C46.2665 67.6016 46.2665 67.6016 46.2665 67.6016C46.2665 67.6016 46.2665 67.6016 46.2665 67.6016H46.2665C46.2665 67.6016 46.2665 67.6016 46.2665 67.6016C46.2665 67.6016 46.2665 67.6016 46.2665 67.6016H46.2665L46.2665 67.6016C46.2665 67.6016 46.2665 67.6016 46.2665 67.6016C46.2665 67.6016 46.2665 67.6016 46.2665 67.6016C46.2665 67.6016 46.2665 67.6015 46.2665 67.6015C46.2665 67.6015 46.2665 67.6015 46.2665 67.6015C46.2665 67.6015 46.2665 67.6015 46.2665 67.6015C46.2665 67.6015 46.2665 67.6015 46.2665 67.6015C46.2665 67.6015 46.2665 67.6015 46.2666 67.6015C46.2666 67.6015 46.2666 67.6015 46.2666 67.6015C46.2666 67.6015 46.2666 67.6015 46.2666 67.6015C46.2666 67.6015 46.2666 67.6015 46.2666 67.6015L46.2666 67.6015H46.2666C46.2666 67.6015 46.2666 67.6015 46.2666 67.6015C46.2666 67.6015 46.2666 67.6015 46.2666 67.6015H46.2666C46.2666 67.6015 46.2666 67.6015 46.2666 67.6015C46.2666 67.6015 46.2666 67.6015 46.2666 67.6015C46.2666 67.6015 46.2666 67.6015 46.2666 67.6015C46.2666 67.6015 46.2666 67.6015 46.2666 67.6015C46.2666 67.6015 46.2666 67.6015 46.2666 67.6015C46.2666 67.6015 46.2666 67.6015 46.2666 67.6015C46.2666 67.6015 46.2666 67.6015 46.2666 67.6015C46.2666 67.6015 46.2666 67.6015 46.2666 67.6015C46.2666 67.6015 46.2666 67.6015 46.2666 67.6015C46.2666 67.6015 46.2666 67.6015 46.2666 67.6015C46.2666 67.6015 46.2666 67.6015 46.2666 67.6015C46.2666 67.6015 46.2666 67.6015 46.2666 67.6015H46.2666L46.2666 67.6015C46.2666 67.6015 46.2666 67.6015 46.2666 67.6015C46.2666 67.6015 46.2666 67.6015 46.2666 67.6015C46.2667 67.6015 46.2667 67.6015 46.2667 67.6015C46.2667 67.6015 46.2667 67.6015 46.2667 67.6015C46.2667 67.6015 46.2667 67.6015 46.2667 67.6015C46.2667 67.6015 46.2667 67.6015 46.2667 67.6015C46.2667 67.6015 46.2667 67.6015 46.2667 67.6015C46.2667 67.6015 46.2667 67.6015 46.2667 67.6015C46.2667 67.6015 46.2667 67.6015 46.2667 67.6015C46.2667 67.6015 46.2667 67.6015 46.2667 67.6015C46.2667 67.6015 46.2667 67.6015 46.2667 67.6015H46.2667C46.2667 67.6015 46.2667 67.6015 46.2667 67.6015L44.7569 65.0091ZM42.4503 16.1655C36.1899 11.4149 29.5358 10.0136 23.947 11.3268C18.3476 12.6424 13.9543 16.6636 12.3196 22.4145C9.05468 33.901 16.8692 51.2336 44.7525 67.5989L46.271 65.0116C18.6437 48.7966 12.5426 32.6026 15.2053 23.2347C16.5346 18.5584 20.066 15.3204 24.6332 14.2472C29.2111 13.1716 34.9656 14.2518 40.6368 18.5553L42.4503 16.1655ZM44.7537 67.5996C44.7532 67.5993 44.7527 67.5991 44.7532 67.5993C44.7534 67.5995 44.7546 67.6001 44.7558 67.6009L46.2719 65.0121C46.2724 65.0124 46.2729 65.0127 46.2724 65.0124C46.2722 65.0123 46.2711 65.0116 46.2698 65.0109L44.7537 67.5996ZM48.2702 15.9741C46.6428 17.3629 44.1363 17.4449 42.4503 16.1655L40.6368 18.5553C43.4642 20.7009 47.5351 20.5453 50.2176 18.2562L48.2702 15.9741Z" fill="#797FF3"/>
</svg>
