<svg width="77" height="70" viewBox="0 0 77 70" fill="none" xmlns="http://www.w3.org/2000/svg">
<path fill-rule="evenodd" clip-rule="evenodd" d="M24.8294 13.125H41.7229C48.7871 13.125 53.7192 17.993 53.7192 24.9693V45.0307C53.7192 52.007 48.7871 56.875 41.7229 56.875H24.8294C17.7651 56.875 12.833 52.007 12.833 45.0307V24.9693C12.833 17.993 17.7651 13.125 24.8294 13.125ZM65.2104 20.0636C66.4908 19.4122 67.9929 19.4803 69.215 20.2502C70.4371 21.0171 71.1663 22.3496 71.1663 23.8064V46.1952C71.1663 47.655 70.4371 48.9845 69.215 49.7514C68.5471 50.169 67.8004 50.3822 67.0479 50.3822C66.4208 50.3822 65.7938 50.2341 65.2075 49.935L60.8879 47.7557C59.2895 46.9443 58.2979 45.3157 58.2979 43.5065V26.4921C58.2979 24.68 59.2895 23.0514 60.8879 22.2459L65.2104 20.0636Z" fill="white"/>
<path d="M69.215 20.2502L68.4155 21.5193L68.4177 21.5207L69.215 20.2502ZM65.2104 20.0636L65.8865 21.4027L65.8906 21.4005L65.2104 20.0636ZM69.215 49.7514L70.0101 51.0234L70.0124 51.022L69.215 49.7514ZM65.2075 49.935L65.8891 48.5988L65.8832 48.5958L65.2075 49.935ZM60.8879 47.7557L60.2089 49.0932L60.2122 49.0949L60.8879 47.7557ZM60.8879 22.2459L61.5629 23.5855L61.5639 23.585L60.8879 22.2459ZM41.7229 11.625H24.8294V14.625H41.7229V11.625ZM55.2192 24.9693C55.2192 21.117 53.8508 17.7594 51.424 15.3636C48.9986 12.9691 45.6073 11.625 41.7229 11.625V14.625C44.9026 14.625 47.5096 15.7149 49.3163 17.4985C51.1216 19.2807 52.2192 21.8454 52.2192 24.9693H55.2192ZM55.2192 45.0307V24.9693H52.2192V45.0307H55.2192ZM41.7229 58.375C45.6073 58.375 48.9986 57.0309 51.424 54.6364C53.8508 52.2406 55.2192 48.883 55.2192 45.0307H52.2192C52.2192 48.1546 51.1216 50.7193 49.3163 52.5015C47.5096 54.2851 44.9026 55.375 41.7229 55.375V58.375ZM24.8294 58.375H41.7229V55.375H24.8294V58.375ZM11.333 45.0307C11.333 48.883 12.7014 52.2406 15.1283 54.6364C17.5537 57.0309 20.9449 58.375 24.8294 58.375V55.375C21.6496 55.375 19.0426 54.2851 17.2359 52.5015C15.4306 50.7193 14.333 48.1546 14.333 45.0307H11.333ZM11.333 24.9693V45.0307H14.333V24.9693H11.333ZM24.8294 11.625C20.9449 11.625 17.5537 12.9691 15.1283 15.3636C12.7014 17.7594 11.333 21.117 11.333 24.9693H14.333C14.333 21.8454 15.4306 19.2807 17.2359 17.4985C19.0426 15.7149 21.6496 14.625 24.8294 14.625V11.625ZM70.0146 18.981C68.3464 17.9302 66.2823 17.8353 64.5302 18.7267L65.8906 21.4005C66.6993 20.9891 67.6395 21.0304 68.4155 21.5193L70.0146 18.981ZM72.6663 23.8064C72.6663 21.8418 71.6788 20.0254 70.0124 18.9796L68.4177 21.5207C69.1955 22.0088 69.6663 22.8574 69.6663 23.8064H72.6663ZM72.6663 46.1952V23.8064H69.6663V46.1952H72.6663ZM70.0124 51.022C71.6783 49.9766 72.6663 48.1634 72.6663 46.1952H69.6663C69.6663 47.1466 69.196 47.9925 68.4177 48.4809L70.0124 51.022ZM67.0479 51.8822C68.087 51.8822 69.1084 51.5871 70.0101 51.0234L68.42 48.4795C67.9859 48.7508 67.5139 48.8822 67.0479 48.8822V51.8822ZM64.5259 51.2712C65.3217 51.6772 66.1822 51.8822 67.0479 51.8822V48.8822C66.6595 48.8822 66.2658 48.791 65.8891 48.5989L64.5259 51.2712ZM60.2122 49.0949L64.5318 51.2742L65.8832 48.5958L61.5635 46.4165L60.2122 49.0949ZM56.7979 43.5065C56.7979 45.8729 58.1001 48.0227 60.2089 49.0932L61.5668 46.4181C60.479 45.8659 59.7979 44.7585 59.7979 43.5065H56.7979ZM56.7979 26.4921V43.5065H59.7979V26.4921H56.7979ZM60.2129 20.9064C58.0992 21.9715 56.7979 24.1241 56.7979 26.4921H59.7979C59.7979 25.2358 60.4798 24.1312 61.5629 23.5855L60.2129 20.9064ZM64.5344 18.7246L60.2118 20.9069L61.5639 23.585L65.8865 21.4026L64.5344 18.7246Z" fill="#797FF3"/>
<line x1="2" y1="65.8787" x2="65.8787" y2="2" stroke="#797FF3" stroke-width="3" stroke-linecap="round"/>
</svg>
