<svg width="507" height="574" viewBox="0 0 507 574" fill="none" xmlns="http://www.w3.org/2000/svg">
<g filter="url(#filter0_d_589_1143)">
<g clip-path="url(#clip0_589_1143)">
<rect x="30" y="26" width="605" height="514" rx="10" fill="#FFFBF1"/>
<rect x="-0.5" y="-0.5" width="7" height="7" rx="3.5" transform="matrix(4.45646e-08 -1 -1 -4.28745e-08 58 51.3804)" stroke="#242424"/>
<rect x="-0.5" y="-0.5" width="7" height="7" rx="3.5" transform="matrix(4.45646e-08 -1 -1 -4.28745e-08 75 51.3804)" stroke="#242424"/>
<rect x="-0.5" y="-0.5" width="7" height="7" rx="3.5" transform="matrix(4.45646e-08 -1 -1 -4.28745e-08 92 51.3804)" stroke="#242424"/>
<rect x="33" y="67" width="172" height="473" fill="#F2EEE2"/>
<path d="M52.296 105V91.59H54.744V97.44H60.45V91.59H62.916V105H60.45V99.6H54.744V105H52.296ZM69.5832 105.216C68.5752 105.216 67.6932 104.988 66.9372 104.532C66.1812 104.076 65.5932 103.458 65.1732 102.678C64.7532 101.898 64.5432 101.034 64.5432 100.086C64.5432 99.102 64.7532 98.232 65.1732 97.476C65.6052 96.708 66.1872 96.102 66.9192 95.658C67.6632 95.214 68.4912 94.992 69.4032 94.992C70.1712 94.992 70.8432 95.118 71.4192 95.37C72.0072 95.622 72.5052 95.97 72.9132 96.414C73.3212 96.858 73.6332 97.368 73.8492 97.944C74.0652 98.508 74.1732 99.12 74.1732 99.78C74.1732 99.948 74.1612 100.122 74.1372 100.302C74.1252 100.482 74.0952 100.638 74.0472 100.77H66.4872V98.97H72.7152L71.5992 99.816C71.7072 99.264 71.6772 98.772 71.5092 98.34C71.3532 97.908 71.0892 97.566 70.7172 97.314C70.3572 97.062 69.9192 96.936 69.4032 96.936C68.9112 96.936 68.4732 97.062 68.0892 97.314C67.7052 97.554 67.4112 97.914 67.2072 98.394C67.0152 98.862 66.9432 99.432 66.9912 100.104C66.9432 100.704 67.0212 101.238 67.2252 101.706C67.4412 102.162 67.7532 102.516 68.1612 102.768C68.5812 103.02 69.0612 103.146 69.6012 103.146C70.1412 103.146 70.5972 103.032 70.9692 102.804C71.3532 102.576 71.6532 102.27 71.8692 101.886L73.7772 102.822C73.5852 103.29 73.2852 103.704 72.8772 104.064C72.4692 104.424 71.9832 104.706 71.4192 104.91C70.8672 105.114 70.2552 105.216 69.5832 105.216ZM76.7887 108.978C76.5247 108.978 76.2667 108.954 76.0147 108.906C75.7627 108.87 75.5347 108.804 75.3307 108.708V106.728C75.4867 106.764 75.6727 106.8 75.8887 106.836C76.1167 106.872 76.3267 106.89 76.5187 106.89C77.0587 106.89 77.4487 106.764 77.6887 106.512C77.9407 106.26 78.1627 105.93 78.3547 105.522L79.0027 104.01L78.9667 105.99L74.7007 95.208H77.2387L80.2267 103.164H79.3267L82.2967 95.208H84.8527L80.5867 105.99C80.3347 106.626 80.0287 107.166 79.6687 107.61C79.3087 108.054 78.8887 108.39 78.4087 108.618C77.9407 108.858 77.4007 108.978 76.7887 108.978ZM85.8228 107.808V106.638C86.2188 106.542 86.5368 106.356 86.7768 106.08C87.0288 105.816 87.1848 105.456 87.2448 105H86.1828V102.48H88.5588V104.028C88.5588 105.084 88.3248 105.93 87.8568 106.566C87.4008 107.202 86.7228 107.616 85.8228 107.808ZM94.1776 105V91.59H96.5176L101.54 98.412H100.424L105.338 91.59H107.678V105H105.212V94.38L106.166 94.614L101.072 101.4H100.784L95.8156 94.614L96.6256 94.38V105H94.1776ZM112.656 105.216C111.972 105.216 111.378 105.102 110.874 104.874C110.37 104.646 109.98 104.322 109.704 103.902C109.428 103.47 109.29 102.972 109.29 102.408C109.29 101.868 109.41 101.388 109.65 100.968C109.89 100.536 110.262 100.176 110.766 99.888C111.27 99.6 111.906 99.396 112.674 99.276L115.878 98.754V100.554L113.124 101.022C112.656 101.106 112.308 101.256 112.08 101.472C111.852 101.688 111.738 101.97 111.738 102.318C111.738 102.654 111.864 102.924 112.116 103.128C112.38 103.32 112.704 103.416 113.088 103.416C113.58 103.416 114.012 103.314 114.384 103.11C114.768 102.894 115.062 102.6 115.266 102.228C115.482 101.856 115.59 101.448 115.59 101.004V98.484C115.59 98.064 115.422 97.716 115.086 97.44C114.762 97.152 114.33 97.008 113.79 97.008C113.286 97.008 112.836 97.146 112.44 97.422C112.056 97.686 111.774 98.04 111.594 98.484L109.668 97.548C109.86 97.032 110.16 96.588 110.568 96.216C110.988 95.832 111.48 95.532 112.044 95.316C112.608 95.1 113.22 94.992 113.88 94.992C114.684 94.992 115.392 95.142 116.004 95.442C116.616 95.73 117.09 96.138 117.426 96.666C117.774 97.182 117.948 97.788 117.948 98.484V105H115.716V103.326L116.22 103.29C115.968 103.71 115.668 104.064 115.32 104.352C114.972 104.628 114.576 104.844 114.132 105C113.688 105.144 113.196 105.216 112.656 105.216ZM119.767 108.6V95.208H121.981V97.152L121.765 96.666C122.101 96.138 122.557 95.73 123.133 95.442C123.709 95.142 124.375 94.992 125.131 94.992C126.055 94.992 126.889 95.22 127.633 95.676C128.377 96.132 128.965 96.744 129.397 97.512C129.841 98.28 130.063 99.144 130.063 100.104C130.063 101.052 129.847 101.916 129.415 102.696C128.983 103.476 128.395 104.094 127.651 104.55C126.907 104.994 126.061 105.216 125.113 105.216C124.405 105.216 123.751 105.078 123.151 104.802C122.563 104.514 122.095 104.106 121.747 103.578L122.125 103.11V108.6H119.767ZM124.843 103.056C125.383 103.056 125.863 102.93 126.283 102.678C126.703 102.426 127.027 102.078 127.255 101.634C127.495 101.19 127.615 100.68 127.615 100.104C127.615 99.528 127.495 99.024 127.255 98.592C127.027 98.148 126.703 97.8 126.283 97.548C125.863 97.284 125.383 97.152 124.843 97.152C124.327 97.152 123.859 97.278 123.439 97.53C123.031 97.782 122.707 98.136 122.467 98.592C122.239 99.036 122.125 99.54 122.125 100.104C122.125 100.68 122.239 101.19 122.467 101.634C122.707 102.078 123.031 102.426 123.439 102.678C123.859 102.93 124.327 103.056 124.843 103.056ZM136.289 105.216C135.329 105.216 134.453 104.994 133.661 104.55C132.881 104.106 132.257 103.5 131.789 102.732C131.333 101.964 131.105 101.088 131.105 100.104C131.105 99.12 131.333 98.244 131.789 97.476C132.257 96.708 132.881 96.102 133.661 95.658C134.441 95.214 135.317 94.992 136.289 94.992C137.249 94.992 138.119 95.214 138.899 95.658C139.679 96.102 140.297 96.708 140.753 97.476C141.221 98.232 141.455 99.108 141.455 100.104C141.455 101.088 141.221 101.964 140.753 102.732C140.285 103.5 139.661 104.106 138.881 104.55C138.101 104.994 137.237 105.216 136.289 105.216ZM136.289 103.056C136.817 103.056 137.279 102.93 137.675 102.678C138.083 102.426 138.401 102.078 138.629 101.634C138.869 101.178 138.989 100.668 138.989 100.104C138.989 99.528 138.869 99.024 138.629 98.592C138.401 98.148 138.083 97.8 137.675 97.548C137.279 97.284 136.817 97.152 136.289 97.152C135.749 97.152 135.275 97.284 134.867 97.548C134.459 97.8 134.135 98.148 133.895 98.592C133.667 99.024 133.553 99.528 133.553 100.104C133.553 100.668 133.667 101.178 133.895 101.634C134.135 102.078 134.459 102.426 134.867 102.678C135.275 102.93 135.749 103.056 136.289 103.056Z" fill="#242424"/>
<path d="M33 67H638" stroke="#242424"/>
<rect x="234" y="89" width="274" height="17" fill="#F2EEE2"/>
<rect x="234" y="198" width="102" height="26" fill="#F2EEE2"/>
<rect x="234" y="492" width="102" height="26" fill="#F2EEE2"/>
<rect x="236" y="200" width="68" height="22" fill="#FFFBF1"/>
<rect x="236" y="494" width="68" height="22" fill="#FFFBF1"/>
<rect x="234" y="134" width="274" height="5" fill="#F2EEE2"/>
<rect x="234" y="435" width="274" height="5" fill="#F2EEE2"/>
<rect x="234" y="401" width="194" height="5" fill="#F2EEE2"/>
<rect x="234" y="401" width="46" height="5" fill="#E5E4FF"/>
<rect x="234" y="150" width="274" height="5" fill="#F2EEE2"/>
<rect x="234" y="451" width="274" height="5" fill="#F2EEE2"/>
<rect x="234" y="166" width="274" height="5" fill="#F2EEE2"/>
<rect x="234" y="467" width="274" height="5" fill="#F2EEE2"/>
<path d="M315.614 211.877C315.178 211.538 314.55 211.617 314.211 212.053C313.872 212.489 313.95 213.117 314.386 213.456L315.614 211.877ZM318 215L317.386 215.789L318.208 216.429L318.814 215.581L318 215ZM323.814 208.581C324.135 208.132 324.031 207.507 323.581 207.186C323.132 206.865 322.507 206.969 322.186 207.419L323.814 208.581ZM314.386 213.456L317.386 215.789L318.614 214.211L315.614 211.877L314.386 213.456ZM318.814 215.581L323.814 208.581L322.186 207.419L317.186 214.419L318.814 215.581Z" fill="#FFFBF1"/>
<mask id="mask0_589_1143" style="mask-type:alpha" maskUnits="userSpaceOnUse" x="234" y="246" width="274" height="125">
<rect x="234" y="246" width="274" height="125" fill="#E5E4FF"/>
</mask>
<g mask="url(#mask0_589_1143)">
<rect x="234" y="246" width="274" height="125" fill="#E5E4FF"/>
<path d="M378.5 279C417 243.519 440.92 275.719 439.938 304L461.5 382L343.5 385C383.333 375.167 436.5 354 397 343C345.231 328.584 361.833 294.36 378.5 279Z" stroke="#FFFBF1"/>
<path d="M304.931 237.849C322.529 267.659 337.29 325.055 255.558 316.155C173.826 307.256 261.319 369.139 315.281 401.193" stroke="#FFFBF1"/>
<path d="M512.564 292.737C509.658 303.661 482.564 309.924 474.79 292.737C470.177 284.923 470.643 262.091 492.065 264.424C513.487 266.756 506.208 245.325 492.064 236.924" stroke="#FFFBF1"/>
<rect x="477.019" y="432.232" width="134.492" height="82.1746" rx="10" transform="rotate(-117.46 477.019 432.232)" fill="#B2B4FE"/>
<rect x="479.123" y="439.708" width="130.735" height="79.8788" rx="10" transform="rotate(-105 479.123 439.708)" fill="#7E83FD"/>
</g>
<path d="M315 503L320 507.5L324.5 503" stroke="#FFFBF1" stroke-width="2" stroke-linecap="round"/>
<circle cx="272" cy="404" r="9" fill="#797EF1"/>
</g>
<rect x="31.5" y="27.5" width="602" height="511" rx="8.5" stroke="#242424" stroke-width="3"/>
</g>
<defs>
<filter id="filter0_d_589_1143" x="0" y="0" width="665" height="574" filterUnits="userSpaceOnUse" color-interpolation-filters="sRGB">
<feFlood flood-opacity="0" result="BackgroundImageFix"/>
<feColorMatrix in="SourceAlpha" type="matrix" values="0 0 0 0 0 0 0 0 0 0 0 0 0 0 0 0 0 0 127 0" result="hardAlpha"/>
<feOffset dy="4"/>
<feGaussianBlur stdDeviation="15"/>
<feComposite in2="hardAlpha" operator="out"/>
<feColorMatrix type="matrix" values="0 0 0 0 0 0 0 0 0 0 0 0 0 0 0 0 0 0 0.1 0"/>
<feBlend mode="normal" in2="BackgroundImageFix" result="effect1_dropShadow_589_1143"/>
<feBlend mode="normal" in="SourceGraphic" in2="effect1_dropShadow_589_1143" result="shape"/>
</filter>
<clipPath id="clip0_589_1143">
<rect x="30" y="26" width="605" height="514" rx="10" fill="white"/>
</clipPath>
</defs>
</svg>
