<svg width="282" height="494" viewBox="0 0 282 494" fill="none" xmlns="http://www.w3.org/2000/svg">
<g filter="url(#filter0_d_589_970)">
<g clip-path="url(#clip0_589_970)">
<rect x="30" y="26" width="222" height="434" rx="10" fill="#FFFBF1"/>
<circle cx="87.6202" cy="223.341" r="33.384" stroke="#797EF2" stroke-width="0.722271"/>
<circle cx="87.6199" cy="223.341" r="76.082" stroke="#797EF2" stroke-width="0.722271"/>
<circle cx="87.6206" cy="223.341" r="88.4782" stroke="#797EF2" stroke-width="0.722271"/>
<circle cx="87.6204" cy="223.341" r="64.3745" stroke="#797EF2" stroke-width="0.722271"/>
<circle cx="87.6205" cy="223.341" r="54.733" stroke="#797EF2" stroke-width="0.722271"/>
<circle cx="87.6207" cy="223.341" r="45.0915" stroke="#797EF2" stroke-width="0.722271"/>
<circle cx="53.3121" cy="210.702" r="70.4214" fill="url(#paint0_radial_589_970)"/>
<circle cx="26.5882" cy="253.316" r="72.5882" fill="url(#paint1_radial_589_970)"/>
<circle cx="125.863" cy="285.802" r="50.1978" fill="url(#paint2_radial_589_970)"/>
<circle cx="142.513" cy="169.893" r="67.8935" fill="url(#paint3_radial_589_970)"/>
<circle cx="141.331" cy="188.7" r="58.2741" fill="url(#paint4_radial_589_970)"/>
<circle cx="209.5" cy="311.5" r="94.5" fill="url(#paint5_radial_589_970)"/>
<g filter="url(#filter1_d_589_970)">
<rect width="16.1767" height="18.7327" rx="2.81644" transform="matrix(-1 0 0 1 97.9688 213.546)" fill="#FFEFC5"/>
<rect x="-0.174331" y="0.174331" width="15.828" height="18.384" rx="2.64211" transform="matrix(-1 0 0 1 97.6201 213.546)" stroke="white" stroke-width="0.348662"/>
</g>
<path fill-rule="evenodd" clip-rule="evenodd" d="M92.0094 213.546C93.5293 213.587 94.7488 214.832 94.7488 216.361V229.598C94.7488 230.851 93.9308 231.913 92.7998 232.279H95.1523C96.7078 232.279 97.9688 231.018 97.9688 229.462V216.362C97.9688 214.807 96.7078 213.546 95.1523 213.546H92.0094Z" fill="#F7DB94"/>
<g filter="url(#filter2_d_589_970)">
<g filter="url(#filter3_d_589_970)">
<rect width="12.5819" height="14.9861" rx="2.01174" transform="matrix(-1 0 0 1 89.9531 223.068)" fill="#FFEFC5"/>
<rect x="-0.174331" y="0.174331" width="12.2332" height="14.6375" rx="1.83741" transform="matrix(-1 0 0 1 89.6045 223.068)" stroke="white" stroke-width="0.348662"/>
</g>
<path fill-rule="evenodd" clip-rule="evenodd" d="M85.198 223.19C86.1581 223.509 86.8506 224.414 86.8506 225.481V235.639C86.8506 236.973 85.7698 238.054 84.4365 238.054H80.7968C81.0362 238.133 81.2923 238.176 81.5583 238.176H87.5146C88.8479 238.176 89.9287 237.095 89.9287 235.762V225.604C89.9287 224.271 88.8479 223.19 87.5146 223.19H85.198Z" fill="#F7DB94"/>
</g>
<path d="M89.1984 208.525C88.1431 210.276 88.2404 212.302 88.4085 213.412C88.485 213.917 88.9207 214.263 89.4299 214.222C90.6666 214.121 92.9451 213.673 94.1452 211.786C95.5439 209.587 95.726 205.578 95.7466 204.226C95.75 204.006 95.5294 203.864 95.3309 203.959C94.0972 204.548 90.4728 206.409 89.1984 208.525Z" fill="#70D186"/>
<path fill-rule="evenodd" clip-rule="evenodd" d="M88.3526 213.119C89.6181 212.901 91.3494 212.301 92.3415 210.671C93.3332 209.04 93.78 206.457 93.9801 204.593C94.614 204.24 95.163 203.967 95.52 203.796C95.7229 203.699 95.9471 203.849 95.9361 204.073C95.8674 205.481 95.5495 209.653 94.1507 211.942C92.953 213.902 90.6813 214.371 89.4429 214.477C88.9302 214.521 88.493 214.168 88.4176 213.659C88.3936 213.497 88.3709 213.316 88.3526 213.119Z" fill="#56A484"/>
<path d="M86.56 212.754C87.1588 213.65 88.1193 214.034 88.6719 214.188C88.927 214.259 89.1762 214.122 89.2594 213.868C89.4666 213.235 89.7333 211.994 89.0945 210.987C88.3562 209.823 86.5266 208.879 85.8988 208.579C85.7954 208.53 85.6843 208.604 85.6876 208.72C85.7085 209.451 85.8318 211.665 86.56 212.754Z" fill="#70D186"/>
<path fill-rule="evenodd" clip-rule="evenodd" d="M88.536 214.143C88.6881 213.469 88.7513 212.496 88.1992 211.666C87.6426 210.829 86.535 210.058 85.7066 209.559C85.6682 209.15 85.6518 208.803 85.6448 208.583C85.641 208.464 85.7568 208.39 85.861 208.444C86.5061 208.781 88.3874 209.831 89.1708 211.014C89.8467 212.035 89.5952 213.272 89.3916 213.906C89.3092 214.163 89.0565 214.299 88.7996 214.226C88.7195 214.203 88.631 214.176 88.536 214.143Z" fill="#56A484"/>
<rect x="213.405" y="42.9995" width="1.95" height="1.99997" fill="#242424"/>
<rect x="216.006" y="40.9995" width="1.95" height="3.99995" fill="#242424"/>
<rect x="218.605" y="39" width="1.95" height="5.99992" fill="#242424"/>
<rect x="221.206" y="37" width="1.95" height="7.9999" fill="#242424"/>
<rect x="229.293" y="39.0712" width="11.4132" height="5.6354" rx="0.638602" stroke="black" stroke-width="0.586823"/>
<rect x="230.293" y="39.9599" width="6.7259" height="3.74664" fill="black" stroke="black" stroke-width="0.586823"/>
<path d="M64.462 86.216C63.43 86.216 62.512 86 61.708 85.568C60.916 85.136 60.292 84.542 59.836 83.786C59.38 83.03 59.152 82.172 59.152 81.212V72.59H61.6V81.086C61.6 81.638 61.72 82.136 61.96 82.58C62.212 83.024 62.554 83.372 62.986 83.624C63.418 83.864 63.91 83.984 64.462 83.984C65.026 83.984 65.518 83.864 65.938 83.624C66.37 83.372 66.706 83.024 66.946 82.58C67.198 82.136 67.324 81.638 67.324 81.086V72.59H69.772V81.212C69.772 82.172 69.544 83.03 69.088 83.786C68.632 84.542 68.002 85.136 67.198 85.568C66.406 86 65.494 86.216 64.462 86.216ZM71.6579 86V76.208H73.8719V78.134L73.6919 77.792C73.9199 77.204 74.2919 76.76 74.8079 76.46C75.3359 76.148 75.9479 75.992 76.6439 75.992C77.3639 75.992 77.9999 76.148 78.5519 76.46C79.1159 76.772 79.5539 77.21 79.8659 77.774C80.1779 78.326 80.3339 78.968 80.3339 79.7V86H77.9759V80.258C77.9759 79.826 77.8919 79.454 77.7239 79.142C77.5559 78.83 77.3219 78.59 77.0219 78.422C76.7339 78.242 76.3919 78.152 75.9959 78.152C75.6119 78.152 75.2699 78.242 74.9699 78.422C74.6699 78.59 74.4359 78.83 74.2679 79.142C74.0999 79.454 74.0159 79.826 74.0159 80.258V86H71.6579ZM81.9678 86V72.374H84.3258V86H81.9678ZM86.143 86V76.208H88.501V86H86.143ZM86.143 75.11V72.59H88.501V75.11H86.143ZM90.3182 86V76.208H92.5322V78.476L92.2802 78.098C92.4602 77.39 92.8202 76.862 93.3602 76.514C93.9002 76.166 94.5362 75.992 95.2682 75.992C96.0722 75.992 96.7802 76.202 97.3922 76.622C98.0042 77.042 98.4002 77.594 98.5802 78.278L97.9142 78.332C98.2142 77.552 98.6642 76.97 99.2642 76.586C99.8642 76.19 100.554 75.992 101.334 75.992C102.03 75.992 102.648 76.148 103.188 76.46C103.74 76.772 104.172 77.21 104.484 77.774C104.796 78.326 104.952 78.968 104.952 79.7V86H102.594V80.258C102.594 79.826 102.516 79.454 102.36 79.142C102.204 78.83 101.988 78.59 101.712 78.422C101.436 78.242 101.1 78.152 100.704 78.152C100.332 78.152 100.002 78.242 99.7142 78.422C99.4262 78.59 99.2042 78.83 99.0482 79.142C98.8922 79.454 98.8142 79.826 98.8142 80.258V86H96.4562V80.258C96.4562 79.826 96.3782 79.454 96.2222 79.142C96.0662 78.83 95.8442 78.59 95.5562 78.422C95.2802 78.242 94.9502 78.152 94.5662 78.152C94.1942 78.152 93.8642 78.242 93.5762 78.422C93.2882 78.59 93.0662 78.83 92.9102 79.142C92.7542 79.454 92.6762 79.826 92.6762 80.258V86H90.3182ZM106.587 86V76.208H108.945V86H106.587ZM106.587 75.11V72.59H108.945V75.11H106.587ZM115.226 86.108C114.122 86.108 113.264 85.808 112.652 85.208C112.052 84.596 111.752 83.738 111.752 82.634V78.314H110.06V76.208H110.24C110.72 76.208 111.092 76.082 111.356 75.83C111.62 75.578 111.752 75.212 111.752 74.732V73.976H114.11V76.208H116.36V78.314H114.11V82.508C114.11 82.832 114.164 83.108 114.272 83.336C114.392 83.564 114.572 83.738 114.812 83.858C115.064 83.978 115.382 84.038 115.766 84.038C115.85 84.038 115.946 84.032 116.054 84.02C116.174 84.008 116.288 83.996 116.396 83.984V86C116.228 86.024 116.036 86.048 115.82 86.072C115.604 86.096 115.406 86.108 115.226 86.108ZM122.394 86.216C121.386 86.216 120.504 85.988 119.748 85.532C118.992 85.076 118.404 84.458 117.984 83.678C117.564 82.898 117.354 82.034 117.354 81.086C117.354 80.102 117.564 79.232 117.984 78.476C118.416 77.708 118.998 77.102 119.73 76.658C120.474 76.214 121.302 75.992 122.214 75.992C122.982 75.992 123.654 76.118 124.23 76.37C124.818 76.622 125.316 76.97 125.724 77.414C126.132 77.858 126.444 78.368 126.66 78.944C126.876 79.508 126.984 80.12 126.984 80.78C126.984 80.948 126.972 81.122 126.948 81.302C126.936 81.482 126.906 81.638 126.858 81.77H119.298V79.97H125.526L124.41 80.816C124.518 80.264 124.488 79.772 124.32 79.34C124.164 78.908 123.9 78.566 123.528 78.314C123.168 78.062 122.73 77.936 122.214 77.936C121.722 77.936 121.284 78.062 120.9 78.314C120.516 78.554 120.222 78.914 120.018 79.394C119.826 79.862 119.754 80.432 119.802 81.104C119.754 81.704 119.832 82.238 120.036 82.706C120.252 83.162 120.564 83.516 120.972 83.768C121.392 84.02 121.872 84.146 122.412 84.146C122.952 84.146 123.408 84.032 123.78 83.804C124.164 83.576 124.464 83.27 124.68 82.886L126.588 83.822C126.396 84.29 126.096 84.704 125.688 85.064C125.28 85.424 124.794 85.706 124.23 85.91C123.678 86.114 123.066 86.216 122.394 86.216ZM132.965 86.216C132.017 86.216 131.171 85.994 130.427 85.55C129.683 85.094 129.095 84.476 128.663 83.696C128.231 82.916 128.015 82.052 128.015 81.104C128.015 80.144 128.231 79.28 128.663 78.512C129.095 77.744 129.683 77.132 130.427 76.676C131.183 76.22 132.023 75.992 132.947 75.992C133.691 75.992 134.351 76.142 134.927 76.442C135.515 76.73 135.977 77.138 136.313 77.666L135.953 78.152V72.374H138.311V86H136.079V84.11L136.331 84.578C135.995 85.106 135.527 85.514 134.927 85.802C134.327 86.078 133.673 86.216 132.965 86.216ZM133.217 84.056C133.757 84.056 134.231 83.93 134.639 83.678C135.047 83.426 135.365 83.078 135.593 82.634C135.833 82.19 135.953 81.68 135.953 81.104C135.953 80.54 135.833 80.036 135.593 79.592C135.365 79.136 135.047 78.782 134.639 78.53C134.231 78.278 133.757 78.152 133.217 78.152C132.689 78.152 132.215 78.284 131.795 78.548C131.375 78.8 131.045 79.148 130.805 79.592C130.577 80.024 130.463 80.528 130.463 81.104C130.463 81.68 130.577 82.19 130.805 82.634C131.045 83.078 131.375 83.426 131.795 83.678C132.215 83.93 132.689 84.056 133.217 84.056ZM59.296 110V96.59H63.67C65.086 96.59 66.316 96.878 67.36 97.454C68.416 98.018 69.232 98.804 69.808 99.812C70.384 100.808 70.672 101.966 70.672 103.286C70.672 104.594 70.384 105.758 69.808 106.778C69.232 107.786 68.416 108.578 67.36 109.154C66.316 109.718 65.086 110 63.67 110H59.296ZM61.744 107.84H63.724C64.636 107.84 65.422 107.654 66.082 107.282C66.754 106.898 67.276 106.37 67.648 105.698C68.02 105.014 68.206 104.21 68.206 103.286C68.206 102.35 68.02 101.546 67.648 100.874C67.276 100.202 66.754 99.68 66.082 99.308C65.422 98.936 64.636 98.75 63.724 98.75H61.744V107.84ZM76.7062 110.216C75.6982 110.216 74.8162 109.988 74.0602 109.532C73.3042 109.076 72.7162 108.458 72.2962 107.678C71.8762 106.898 71.6662 106.034 71.6662 105.086C71.6662 104.102 71.8762 103.232 72.2962 102.476C72.7282 101.708 73.3102 101.102 74.0422 100.658C74.7862 100.214 75.6142 99.992 76.5262 99.992C77.2942 99.992 77.9662 100.118 78.5422 100.37C79.1302 100.622 79.6282 100.97 80.0362 101.414C80.4442 101.858 80.7562 102.368 80.9722 102.944C81.1882 103.508 81.2962 104.12 81.2962 104.78C81.2962 104.948 81.2842 105.122 81.2602 105.302C81.2482 105.482 81.2182 105.638 81.1702 105.77H73.6102V103.97H79.8382L78.7222 104.816C78.8302 104.264 78.8002 103.772 78.6322 103.34C78.4762 102.908 78.2122 102.566 77.8402 102.314C77.4802 102.062 77.0422 101.936 76.5262 101.936C76.0342 101.936 75.5962 102.062 75.2122 102.314C74.8282 102.554 74.5342 102.914 74.3302 103.394C74.1382 103.862 74.0662 104.432 74.1142 105.104C74.0662 105.704 74.1442 106.238 74.3482 106.706C74.5642 107.162 74.8762 107.516 75.2842 107.768C75.7042 108.02 76.1842 108.146 76.7242 108.146C77.2642 108.146 77.7202 108.032 78.0922 107.804C78.4762 107.576 78.7762 107.27 78.9922 106.886L80.9002 107.822C80.7082 108.29 80.4082 108.704 80.0002 109.064C79.5922 109.424 79.1062 109.706 78.5422 109.91C77.9902 110.114 77.3782 110.216 76.7062 110.216ZM86.4497 110.216C85.4057 110.216 84.4937 109.97 83.7137 109.478C82.9457 108.974 82.4177 108.296 82.1297 107.444L83.8937 106.598C84.1457 107.15 84.4937 107.582 84.9377 107.894C85.3937 108.206 85.8977 108.362 86.4497 108.362C86.8817 108.362 87.2237 108.266 87.4757 108.074C87.7277 107.882 87.8537 107.63 87.8537 107.318C87.8537 107.126 87.7997 106.97 87.6917 106.85C87.5957 106.718 87.4577 106.61 87.2777 106.526C87.1097 106.43 86.9237 106.352 86.7197 106.292L85.1177 105.842C84.2897 105.602 83.6597 105.236 83.2277 104.744C82.8077 104.252 82.5977 103.67 82.5977 102.998C82.5977 102.398 82.7477 101.876 83.0477 101.432C83.3597 100.976 83.7857 100.622 84.3257 100.37C84.8777 100.118 85.5077 99.992 86.2157 99.992C87.1397 99.992 87.9557 100.214 88.6637 100.658C89.3717 101.102 89.8757 101.726 90.1757 102.53L88.3757 103.376C88.2077 102.932 87.9257 102.578 87.5297 102.314C87.1337 102.05 86.6897 101.918 86.1977 101.918C85.8017 101.918 85.4897 102.008 85.2617 102.188C85.0337 102.368 84.9197 102.602 84.9197 102.89C84.9197 103.07 84.9677 103.226 85.0637 103.358C85.1597 103.49 85.2917 103.598 85.4597 103.682C85.6397 103.766 85.8437 103.844 86.0717 103.916L87.6377 104.384C88.4417 104.624 89.0597 104.984 89.4917 105.464C89.9357 105.944 90.1577 106.532 90.1577 107.228C90.1577 107.816 90.0017 108.338 89.6897 108.794C89.3777 109.238 88.9457 109.586 88.3937 109.838C87.8417 110.09 87.1937 110.216 86.4497 110.216ZM91.6098 110V100.208H93.9678V110H91.6098ZM91.6098 99.11V96.59H93.9678V99.11H91.6098ZM100.537 113.96C99.805 113.96 99.127 113.84 98.503 113.6C97.879 113.36 97.339 113.024 96.883 112.592C96.439 112.172 96.115 111.674 95.911 111.098L98.107 110.27C98.251 110.726 98.533 111.092 98.953 111.368C99.385 111.656 99.913 111.8 100.537 111.8C101.017 111.8 101.437 111.71 101.797 111.53C102.169 111.35 102.457 111.086 102.661 110.738C102.865 110.402 102.967 109.994 102.967 109.514V107.282L103.417 107.822C103.081 108.41 102.631 108.854 102.067 109.154C101.503 109.454 100.861 109.604 100.141 109.604C99.229 109.604 98.413 109.394 97.693 108.974C96.973 108.554 96.409 107.978 96.001 107.246C95.593 106.514 95.389 105.692 95.389 104.78C95.389 103.856 95.593 103.034 96.001 102.314C96.409 101.594 96.967 101.03 97.675 100.622C98.383 100.202 99.187 99.992 100.087 99.992C100.819 99.992 101.461 100.148 102.013 100.46C102.577 100.76 103.045 101.198 103.417 101.774L103.093 102.368V100.208H105.325V109.514C105.325 110.366 105.115 111.128 104.695 111.8C104.287 112.472 103.723 113 103.003 113.384C102.295 113.768 101.473 113.96 100.537 113.96ZM100.429 107.426C100.933 107.426 101.371 107.318 101.743 107.102C102.127 106.874 102.427 106.562 102.643 106.166C102.859 105.77 102.967 105.314 102.967 104.798C102.967 104.294 102.853 103.844 102.625 103.448C102.409 103.04 102.109 102.722 101.725 102.494C101.353 102.266 100.921 102.152 100.429 102.152C99.937 102.152 99.493 102.266 99.097 102.494C98.701 102.722 98.389 103.04 98.161 103.448C97.945 103.844 97.837 104.294 97.837 104.798C97.837 105.302 97.945 105.752 98.161 106.148C98.389 106.544 98.695 106.856 99.079 107.084C99.475 107.312 99.925 107.426 100.429 107.426ZM107.167 110V100.208H109.381V102.134L109.201 101.792C109.429 101.204 109.801 100.76 110.317 100.46C110.845 100.148 111.457 99.992 112.153 99.992C112.873 99.992 113.509 100.148 114.061 100.46C114.625 100.772 115.063 101.21 115.375 101.774C115.687 102.326 115.843 102.968 115.843 103.7V110H113.485V104.258C113.485 103.826 113.401 103.454 113.233 103.142C113.065 102.83 112.831 102.59 112.531 102.422C112.243 102.242 111.901 102.152 111.505 102.152C111.121 102.152 110.779 102.242 110.479 102.422C110.179 102.59 109.945 102.83 109.777 103.142C109.609 103.454 109.525 103.826 109.525 104.258V110H107.167ZM121.203 110.216C120.159 110.216 119.247 109.97 118.467 109.478C117.699 108.974 117.171 108.296 116.883 107.444L118.647 106.598C118.899 107.15 119.247 107.582 119.691 107.894C120.147 108.206 120.651 108.362 121.203 108.362C121.635 108.362 121.977 108.266 122.229 108.074C122.481 107.882 122.607 107.63 122.607 107.318C122.607 107.126 122.553 106.97 122.445 106.85C122.349 106.718 122.211 106.61 122.031 106.526C121.863 106.43 121.677 106.352 121.473 106.292L119.871 105.842C119.043 105.602 118.413 105.236 117.981 104.744C117.561 104.252 117.351 103.67 117.351 102.998C117.351 102.398 117.501 101.876 117.801 101.432C118.113 100.976 118.539 100.622 119.079 100.37C119.631 100.118 120.261 99.992 120.969 99.992C121.893 99.992 122.709 100.214 123.417 100.658C124.125 101.102 124.629 101.726 124.929 102.53L123.129 103.376C122.961 102.932 122.679 102.578 122.283 102.314C121.887 102.05 121.443 101.918 120.951 101.918C120.555 101.918 120.243 102.008 120.015 102.188C119.787 102.368 119.673 102.602 119.673 102.89C119.673 103.07 119.721 103.226 119.817 103.358C119.913 103.49 120.045 103.598 120.213 103.682C120.393 103.766 120.597 103.844 120.825 103.916L122.391 104.384C123.195 104.624 123.813 104.984 124.245 105.464C124.689 105.944 124.911 106.532 124.911 107.228C124.911 107.816 124.755 108.338 124.443 108.794C124.131 109.238 123.699 109.586 123.147 109.838C122.595 110.09 121.947 110.216 121.203 110.216Z" fill="#242424"/>
<path d="M64.084 348.216C63.232 348.216 62.44 348.06 61.708 347.748C60.988 347.436 60.364 347.004 59.836 346.452C59.32 345.888 58.942 345.234 58.702 344.49L60.736 343.608C61.06 344.376 61.528 344.982 62.14 345.426C62.752 345.858 63.442 346.074 64.21 346.074C64.642 346.074 65.014 346.008 65.326 345.876C65.65 345.732 65.896 345.54 66.064 345.3C66.244 345.06 66.334 344.772 66.334 344.436C66.334 344.04 66.214 343.716 65.974 343.464C65.746 343.2 65.398 342.996 64.93 342.852L62.356 342.024C61.312 341.7 60.526 341.214 59.998 340.566C59.47 339.918 59.206 339.156 59.206 338.28C59.206 337.512 59.392 336.834 59.764 336.246C60.148 335.658 60.676 335.202 61.348 334.878C62.032 334.542 62.812 334.374 63.688 334.374C64.492 334.374 65.23 334.518 65.902 334.806C66.574 335.082 67.15 335.472 67.63 335.976C68.122 336.468 68.488 337.05 68.728 337.722L66.712 338.622C66.448 337.95 66.052 337.434 65.524 337.074C64.996 336.702 64.384 336.516 63.688 336.516C63.28 336.516 62.92 336.588 62.608 336.732C62.296 336.864 62.05 337.056 61.87 337.308C61.702 337.548 61.618 337.836 61.618 338.172C61.618 338.544 61.738 338.874 61.978 339.162C62.218 339.438 62.584 339.654 63.076 339.81L65.542 340.584C66.61 340.932 67.408 341.412 67.936 342.024C68.476 342.636 68.746 343.392 68.746 344.292C68.746 345.06 68.548 345.738 68.152 346.326C67.756 346.914 67.21 347.376 66.514 347.712C65.818 348.048 65.008 348.216 64.084 348.216ZM73.8843 348.216C73.1283 348.216 72.4683 348.048 71.9043 347.712C71.3523 347.376 70.9263 346.908 70.6263 346.308C70.3383 345.708 70.1943 345.006 70.1943 344.202V338.208H72.5523V344.004C72.5523 344.412 72.6303 344.772 72.7863 345.084C72.9543 345.384 73.1883 345.624 73.4883 345.804C73.8003 345.972 74.1483 346.056 74.5323 346.056C74.9163 346.056 75.2583 345.972 75.5583 345.804C75.8583 345.624 76.0923 345.378 76.2603 345.066C76.4283 344.754 76.5123 344.382 76.5123 343.95V338.208H78.8703V348H76.6383V346.074L76.8363 346.416C76.6083 347.016 76.2303 347.466 75.7023 347.766C75.1863 348.066 74.5803 348.216 73.8843 348.216ZM80.7022 351.6V338.208H82.9162V340.152L82.7002 339.666C83.0362 339.138 83.4922 338.73 84.0682 338.442C84.6442 338.142 85.3102 337.992 86.0662 337.992C86.9902 337.992 87.8242 338.22 88.5682 338.676C89.3122 339.132 89.9002 339.744 90.3322 340.512C90.7762 341.28 90.9982 342.144 90.9982 343.104C90.9982 344.052 90.7822 344.916 90.3502 345.696C89.9182 346.476 89.3302 347.094 88.5862 347.55C87.8422 347.994 86.9962 348.216 86.0482 348.216C85.3402 348.216 84.6862 348.078 84.0862 347.802C83.4982 347.514 83.0302 347.106 82.6822 346.578L83.0602 346.11V351.6H80.7022ZM85.7782 346.056C86.3182 346.056 86.7982 345.93 87.2182 345.678C87.6382 345.426 87.9622 345.078 88.1902 344.634C88.4302 344.19 88.5502 343.68 88.5502 343.104C88.5502 342.528 88.4302 342.024 88.1902 341.592C87.9622 341.148 87.6382 340.8 87.2182 340.548C86.7982 340.284 86.3182 340.152 85.7782 340.152C85.2622 340.152 84.7942 340.278 84.3742 340.53C83.9662 340.782 83.6422 341.136 83.4022 341.592C83.1742 342.036 83.0602 342.54 83.0602 343.104C83.0602 343.68 83.1742 344.19 83.4022 344.634C83.6422 345.078 83.9662 345.426 84.3742 345.678C84.7942 345.93 85.2622 346.056 85.7782 346.056ZM97.08 348.216C96.072 348.216 95.19 347.988 94.434 347.532C93.678 347.076 93.09 346.458 92.67 345.678C92.25 344.898 92.04 344.034 92.04 343.086C92.04 342.102 92.25 341.232 92.67 340.476C93.102 339.708 93.684 339.102 94.416 338.658C95.16 338.214 95.988 337.992 96.9 337.992C97.668 337.992 98.34 338.118 98.916 338.37C99.504 338.622 100.002 338.97 100.41 339.414C100.818 339.858 101.13 340.368 101.346 340.944C101.562 341.508 101.67 342.12 101.67 342.78C101.67 342.948 101.658 343.122 101.634 343.302C101.622 343.482 101.592 343.638 101.544 343.77H93.984V341.97H100.212L99.096 342.816C99.204 342.264 99.174 341.772 99.006 341.34C98.85 340.908 98.586 340.566 98.214 340.314C97.854 340.062 97.416 339.936 96.9 339.936C96.408 339.936 95.97 340.062 95.586 340.314C95.202 340.554 94.908 340.914 94.704 341.394C94.512 341.862 94.44 342.432 94.488 343.104C94.44 343.704 94.518 344.238 94.722 344.706C94.938 345.162 95.25 345.516 95.658 345.768C96.078 346.02 96.558 346.146 97.098 346.146C97.638 346.146 98.094 346.032 98.466 345.804C98.85 345.576 99.15 345.27 99.366 344.886L101.274 345.822C101.082 346.29 100.782 346.704 100.374 347.064C99.966 347.424 99.48 347.706 98.916 347.91C98.364 348.114 97.752 348.216 97.08 348.216ZM103.097 348V338.208H105.311V340.386L105.131 340.062C105.359 339.33 105.713 338.82 106.193 338.532C106.685 338.244 107.273 338.1 107.957 338.1H108.533V340.188H107.687C107.015 340.188 106.475 340.398 106.067 340.818C105.659 341.226 105.455 341.802 105.455 342.546V348H103.097ZM114.186 348.216C113.214 348.216 112.338 347.994 111.558 347.55C110.79 347.094 110.184 346.482 109.74 345.714C109.296 344.934 109.074 344.058 109.074 343.086C109.074 342.114 109.296 341.244 109.74 340.476C110.184 339.708 110.79 339.102 111.558 338.658C112.338 338.214 113.214 337.992 114.186 337.992C114.882 337.992 115.53 338.118 116.13 338.37C116.73 338.61 117.246 338.946 117.678 339.378C118.122 339.798 118.44 340.302 118.632 340.89L116.562 341.79C116.382 341.298 116.076 340.902 115.644 340.602C115.224 340.302 114.738 340.152 114.186 340.152C113.67 340.152 113.208 340.278 112.8 340.53C112.404 340.782 112.092 341.13 111.864 341.574C111.636 342.018 111.522 342.528 111.522 343.104C111.522 343.68 111.636 344.19 111.864 344.634C112.092 345.078 112.404 345.426 112.8 345.678C113.208 345.93 113.67 346.056 114.186 346.056C114.75 346.056 115.242 345.906 115.662 345.606C116.082 345.306 116.382 344.904 116.562 344.4L118.632 345.336C118.44 345.888 118.128 346.386 117.696 346.83C117.264 347.262 116.748 347.604 116.148 347.856C115.548 348.096 114.894 348.216 114.186 348.216ZM120.061 348V334.374H122.419V340.134L122.095 339.792C122.323 339.204 122.695 338.76 123.211 338.46C123.739 338.148 124.351 337.992 125.047 337.992C125.767 337.992 126.403 338.148 126.955 338.46C127.519 338.772 127.957 339.21 128.269 339.774C128.581 340.326 128.737 340.968 128.737 341.7V348H126.379V342.258C126.379 341.826 126.295 341.454 126.127 341.142C125.959 340.83 125.725 340.59 125.425 340.422C125.137 340.242 124.795 340.152 124.399 340.152C124.015 340.152 123.673 340.242 123.373 340.422C123.073 340.59 122.839 340.83 122.671 341.142C122.503 341.454 122.419 341.826 122.419 342.258V348H120.061ZM133.341 348.216C132.657 348.216 132.063 348.102 131.559 347.874C131.055 347.646 130.665 347.322 130.389 346.902C130.113 346.47 129.975 345.972 129.975 345.408C129.975 344.868 130.095 344.388 130.335 343.968C130.575 343.536 130.947 343.176 131.451 342.888C131.955 342.6 132.591 342.396 133.359 342.276L136.563 341.754V343.554L133.809 344.022C133.341 344.106 132.993 344.256 132.765 344.472C132.537 344.688 132.423 344.97 132.423 345.318C132.423 345.654 132.549 345.924 132.801 346.128C133.065 346.32 133.389 346.416 133.773 346.416C134.265 346.416 134.697 346.314 135.069 346.11C135.453 345.894 135.747 345.6 135.951 345.228C136.167 344.856 136.275 344.448 136.275 344.004V341.484C136.275 341.064 136.107 340.716 135.771 340.44C135.447 340.152 135.015 340.008 134.475 340.008C133.971 340.008 133.521 340.146 133.125 340.422C132.741 340.686 132.459 341.04 132.279 341.484L130.353 340.548C130.545 340.032 130.845 339.588 131.253 339.216C131.673 338.832 132.165 338.532 132.729 338.316C133.293 338.1 133.905 337.992 134.565 337.992C135.369 337.992 136.077 338.142 136.689 338.442C137.301 338.73 137.775 339.138 138.111 339.666C138.459 340.182 138.633 340.788 138.633 341.484V348H136.401V346.326L136.905 346.29C136.653 346.71 136.353 347.064 136.005 347.352C135.657 347.628 135.261 347.844 134.817 348C134.373 348.144 133.881 348.216 133.341 348.216ZM140.452 348V338.208H142.666V340.386L142.486 340.062C142.714 339.33 143.068 338.82 143.548 338.532C144.04 338.244 144.628 338.1 145.312 338.1H145.888V340.188H145.042C144.37 340.188 143.83 340.398 143.422 340.818C143.014 341.226 142.81 341.802 142.81 342.546V348H140.452ZM151.577 351.96C150.845 351.96 150.167 351.84 149.543 351.6C148.919 351.36 148.379 351.024 147.923 350.592C147.479 350.172 147.155 349.674 146.951 349.098L149.147 348.27C149.291 348.726 149.573 349.092 149.993 349.368C150.425 349.656 150.953 349.8 151.577 349.8C152.057 349.8 152.477 349.71 152.837 349.53C153.209 349.35 153.497 349.086 153.701 348.738C153.905 348.402 154.007 347.994 154.007 347.514V345.282L154.457 345.822C154.121 346.41 153.671 346.854 153.107 347.154C152.543 347.454 151.901 347.604 151.181 347.604C150.269 347.604 149.453 347.394 148.733 346.974C148.013 346.554 147.449 345.978 147.041 345.246C146.633 344.514 146.429 343.692 146.429 342.78C146.429 341.856 146.633 341.034 147.041 340.314C147.449 339.594 148.007 339.03 148.715 338.622C149.423 338.202 150.227 337.992 151.127 337.992C151.859 337.992 152.501 338.148 153.053 338.46C153.617 338.76 154.085 339.198 154.457 339.774L154.133 340.368V338.208H156.365V347.514C156.365 348.366 156.155 349.128 155.735 349.8C155.327 350.472 154.763 351 154.043 351.384C153.335 351.768 152.513 351.96 151.577 351.96ZM151.469 345.426C151.973 345.426 152.411 345.318 152.783 345.102C153.167 344.874 153.467 344.562 153.683 344.166C153.899 343.77 154.007 343.314 154.007 342.798C154.007 342.294 153.893 341.844 153.665 341.448C153.449 341.04 153.149 340.722 152.765 340.494C152.393 340.266 151.961 340.152 151.469 340.152C150.977 340.152 150.533 340.266 150.137 340.494C149.741 340.722 149.429 341.04 149.201 341.448C148.985 341.844 148.877 342.294 148.877 342.798C148.877 343.302 148.985 343.752 149.201 344.148C149.429 344.544 149.735 344.856 150.119 345.084C150.515 345.312 150.965 345.426 151.469 345.426ZM162.851 348.216C161.843 348.216 160.961 347.988 160.205 347.532C159.449 347.076 158.861 346.458 158.441 345.678C158.021 344.898 157.811 344.034 157.811 343.086C157.811 342.102 158.021 341.232 158.441 340.476C158.873 339.708 159.455 339.102 160.187 338.658C160.931 338.214 161.759 337.992 162.671 337.992C163.439 337.992 164.111 338.118 164.687 338.37C165.275 338.622 165.773 338.97 166.181 339.414C166.589 339.858 166.901 340.368 167.117 340.944C167.333 341.508 167.441 342.12 167.441 342.78C167.441 342.948 167.429 343.122 167.405 343.302C167.393 343.482 167.363 343.638 167.315 343.77H159.755V341.97H165.983L164.867 342.816C164.975 342.264 164.945 341.772 164.777 341.34C164.621 340.908 164.357 340.566 163.985 340.314C163.625 340.062 163.187 339.936 162.671 339.936C162.179 339.936 161.741 340.062 161.357 340.314C160.973 340.554 160.679 340.914 160.475 341.394C160.283 341.862 160.211 342.432 160.259 343.104C160.211 343.704 160.289 344.238 160.493 344.706C160.709 345.162 161.021 345.516 161.429 345.768C161.849 346.02 162.329 346.146 162.869 346.146C163.409 346.146 163.865 346.032 164.237 345.804C164.621 345.576 164.921 345.27 165.137 344.886L167.045 345.822C166.853 346.29 166.553 346.704 166.145 347.064C165.737 347.424 165.251 347.706 164.687 347.91C164.135 348.114 163.523 348.216 162.851 348.216ZM172.896 351.978C172.632 351.978 172.374 351.954 172.122 351.906C171.87 351.87 171.642 351.804 171.438 351.708V349.728C171.594 349.764 171.78 349.8 171.996 349.836C172.224 349.872 172.434 349.89 172.626 349.89C173.166 349.89 173.556 349.764 173.796 349.512C174.048 349.26 174.27 348.93 174.462 348.522L175.11 347.01L175.074 348.99L170.808 338.208H173.346L176.334 346.164H175.434L178.404 338.208H180.96L176.694 348.99C176.442 349.626 176.136 350.166 175.776 350.61C175.416 351.054 174.996 351.39 174.516 351.618C174.048 351.858 173.508 351.978 172.896 351.978ZM186.507 348.216C185.547 348.216 184.671 347.994 183.879 347.55C183.099 347.106 182.475 346.5 182.007 345.732C181.551 344.964 181.323 344.088 181.323 343.104C181.323 342.12 181.551 341.244 182.007 340.476C182.475 339.708 183.099 339.102 183.879 338.658C184.659 338.214 185.535 337.992 186.507 337.992C187.467 337.992 188.337 338.214 189.117 338.658C189.897 339.102 190.515 339.708 190.971 340.476C191.439 341.232 191.673 342.108 191.673 343.104C191.673 344.088 191.439 344.964 190.971 345.732C190.503 346.5 189.879 347.106 189.099 347.55C188.319 347.994 187.455 348.216 186.507 348.216ZM186.507 346.056C187.035 346.056 187.497 345.93 187.893 345.678C188.301 345.426 188.619 345.078 188.847 344.634C189.087 344.178 189.207 343.668 189.207 343.104C189.207 342.528 189.087 342.024 188.847 341.592C188.619 341.148 188.301 340.8 187.893 340.548C187.497 340.284 187.035 340.152 186.507 340.152C185.967 340.152 185.493 340.284 185.085 340.548C184.677 340.8 184.353 341.148 184.113 341.592C183.885 342.024 183.771 342.528 183.771 343.104C183.771 343.668 183.885 344.178 184.113 344.634C184.353 345.078 184.677 345.426 185.085 345.678C185.493 345.93 185.967 346.056 186.507 346.056ZM196.593 348.216C195.837 348.216 195.177 348.048 194.613 347.712C194.061 347.376 193.635 346.908 193.335 346.308C193.047 345.708 192.903 345.006 192.903 344.202V338.208H195.261V344.004C195.261 344.412 195.339 344.772 195.495 345.084C195.663 345.384 195.897 345.624 196.197 345.804C196.509 345.972 196.857 346.056 197.241 346.056C197.625 346.056 197.967 345.972 198.267 345.804C198.567 345.624 198.801 345.378 198.969 345.066C199.137 344.754 199.221 344.382 199.221 343.95V338.208H201.579V348H199.347V346.074L199.545 346.416C199.317 347.016 198.939 347.466 198.411 347.766C197.895 348.066 197.289 348.216 196.593 348.216ZM203.411 348V338.208H205.625V340.386L205.445 340.062C205.673 339.33 206.027 338.82 206.507 338.532C206.999 338.244 207.587 338.1 208.271 338.1H208.847V340.188H208.001C207.329 340.188 206.789 340.398 206.381 340.818C205.973 341.226 205.769 341.802 205.769 342.546V348H203.411Z" fill="#242424"/>
<g filter="url(#filter4_d_589_970)">
<circle cx="175" cy="92" r="20" fill="#797EF1"/>
<path d="M174.765 82.7319V99.3173M174.765 99.3173L167.683 93.7888M174.765 99.3173L181.341 93.7888" stroke="#FFFBF1" stroke-width="2"/>
</g>
<path d="M117.494 382V368.59H123.128C123.932 368.59 124.622 368.734 125.198 369.022C125.786 369.31 126.236 369.718 126.548 370.246C126.872 370.762 127.034 371.38 127.034 372.1C127.034 372.76 126.86 373.36 126.512 373.9C126.176 374.428 125.678 374.842 125.018 375.142L125 374.476C125.576 374.692 126.05 374.98 126.422 375.34C126.806 375.688 127.094 376.096 127.286 376.564C127.478 377.02 127.574 377.506 127.574 378.022C127.574 379.258 127.178 380.23 126.386 380.938C125.594 381.646 124.514 382 123.146 382H117.494ZM119.258 380.38H123.218C123.998 380.38 124.622 380.17 125.09 379.75C125.558 379.33 125.792 378.76 125.792 378.04C125.792 377.32 125.558 376.75 125.09 376.33C124.622 375.898 123.998 375.682 123.218 375.682H119.258V380.38ZM119.258 374.098H123.092C123.74 374.098 124.262 373.912 124.658 373.54C125.054 373.156 125.252 372.67 125.252 372.082C125.252 371.47 125.054 371.002 124.658 370.678C124.262 370.354 123.74 370.192 123.092 370.192H119.258V374.098ZM129.399 382V372.298H131.037V374.08L130.857 373.828C131.085 373.276 131.433 372.868 131.901 372.604C132.369 372.328 132.939 372.19 133.611 372.19H134.205V373.774H133.359C132.675 373.774 132.123 373.99 131.703 374.422C131.283 374.842 131.073 375.442 131.073 376.222V382H129.399ZM138.176 382.216C137.54 382.216 136.976 382.102 136.484 381.874C136.004 381.634 135.626 381.31 135.35 380.902C135.074 380.482 134.936 380.002 134.936 379.462C134.936 378.946 135.044 378.484 135.26 378.076C135.488 377.656 135.836 377.302 136.304 377.014C136.784 376.726 137.384 376.522 138.104 376.402L141.704 375.808V377.212L138.482 377.752C137.858 377.86 137.402 378.058 137.114 378.346C136.838 378.634 136.7 378.988 136.7 379.408C136.7 379.804 136.856 380.134 137.168 380.398C137.492 380.662 137.894 380.794 138.374 380.794C138.986 380.794 139.514 380.668 139.958 380.416C140.414 380.152 140.768 379.798 141.02 379.354C141.284 378.91 141.416 378.418 141.416 377.878V375.412C141.416 374.884 141.218 374.458 140.822 374.134C140.438 373.798 139.928 373.63 139.292 373.63C138.74 373.63 138.248 373.774 137.816 374.062C137.396 374.338 137.084 374.71 136.88 375.178L135.422 374.422C135.602 373.978 135.89 373.582 136.286 373.234C136.682 372.874 137.144 372.592 137.672 372.388C138.2 372.184 138.752 372.082 139.328 372.082C140.072 372.082 140.726 372.226 141.29 372.514C141.854 372.79 142.292 373.18 142.604 373.684C142.928 374.176 143.09 374.752 143.09 375.412V382H141.452V380.164L141.758 380.272C141.554 380.656 141.278 380.992 140.93 381.28C140.582 381.568 140.174 381.796 139.706 381.964C139.238 382.132 138.728 382.216 138.176 382.216ZM145.325 382V372.298H146.963V374.188L146.693 374.026C146.933 373.414 147.317 372.94 147.845 372.604C148.385 372.256 149.015 372.082 149.735 372.082C150.431 372.082 151.049 372.238 151.589 372.55C152.141 372.862 152.573 373.294 152.885 373.846C153.209 374.398 153.371 375.022 153.371 375.718V382H151.679V376.258C151.679 375.718 151.583 375.262 151.391 374.89C151.199 374.518 150.923 374.23 150.563 374.026C150.215 373.81 149.813 373.702 149.357 373.702C148.901 373.702 148.493 373.81 148.133 374.026C147.785 374.23 147.509 374.524 147.305 374.908C147.101 375.28 146.999 375.73 146.999 376.258V382H145.325ZM159.817 382.216C158.905 382.216 158.083 381.994 157.351 381.55C156.631 381.106 156.061 380.5 155.641 379.732C155.221 378.964 155.011 378.106 155.011 377.158C155.011 376.186 155.221 375.322 155.641 374.566C156.061 373.798 156.631 373.192 157.351 372.748C158.083 372.304 158.905 372.082 159.817 372.082C160.621 372.082 161.335 372.256 161.959 372.604C162.583 372.94 163.075 373.396 163.435 373.972L163.165 374.386V368.374H164.857V382H163.219V379.93L163.435 380.218C163.099 380.854 162.607 381.346 161.959 381.694C161.323 382.042 160.609 382.216 159.817 382.216ZM159.961 380.596C160.573 380.596 161.119 380.446 161.599 380.146C162.079 379.846 162.457 379.438 162.733 378.922C163.021 378.394 163.165 377.806 163.165 377.158C163.165 376.498 163.021 375.91 162.733 375.394C162.457 374.866 162.079 374.452 161.599 374.152C161.119 373.852 160.573 373.702 159.961 373.702C159.361 373.702 158.815 373.858 158.323 374.17C157.843 374.47 157.465 374.878 157.189 375.394C156.913 375.898 156.775 376.486 156.775 377.158C156.775 377.806 156.913 378.394 157.189 378.922C157.465 379.438 157.843 379.846 158.323 380.146C158.803 380.446 159.349 380.596 159.961 380.596ZM131.251 406V392.59H135.985C136.873 392.59 137.653 392.758 138.325 393.094C138.997 393.43 139.519 393.91 139.891 394.534C140.275 395.158 140.467 395.89 140.467 396.73C140.467 397.57 140.275 398.302 139.891 398.926C139.519 399.538 138.997 400.018 138.325 400.366C137.665 400.702 136.885 400.87 135.985 400.87H133.015V406H131.251ZM133.015 399.25H136.039C136.579 399.25 137.047 399.148 137.443 398.944C137.839 398.74 138.145 398.446 138.361 398.062C138.577 397.678 138.685 397.234 138.685 396.73C138.685 396.214 138.577 395.77 138.361 395.398C138.145 395.014 137.839 394.72 137.443 394.516C137.047 394.312 136.579 394.21 136.039 394.21H133.015V399.25ZM142.294 406V396.298H143.932V398.08L143.752 397.828C143.98 397.276 144.328 396.868 144.796 396.604C145.264 396.328 145.834 396.19 146.506 396.19H147.1V397.774H146.254C145.57 397.774 145.018 397.99 144.598 398.422C144.178 398.842 143.968 399.442 143.968 400.222V406H142.294ZM152.835 406.216C151.899 406.216 151.053 406 150.297 405.568C149.541 405.124 148.941 404.518 148.497 403.75C148.053 402.982 147.831 402.112 147.831 401.14C147.831 400.168 148.047 399.304 148.479 398.548C148.923 397.792 149.523 397.192 150.279 396.748C151.035 396.304 151.887 396.082 152.835 396.082C153.771 396.082 154.617 396.304 155.373 396.748C156.129 397.18 156.723 397.774 157.155 398.53C157.599 399.286 157.821 400.156 157.821 401.14C157.821 402.124 157.593 403 157.137 403.768C156.681 404.524 156.075 405.124 155.319 405.568C154.575 406 153.747 406.216 152.835 406.216ZM152.835 404.596C153.435 404.596 153.975 404.446 154.455 404.146C154.947 403.846 155.331 403.432 155.607 402.904C155.895 402.376 156.039 401.788 156.039 401.14C156.039 400.48 155.895 399.898 155.607 399.394C155.331 398.878 154.947 398.47 154.455 398.17C153.975 397.858 153.435 397.702 152.835 397.702C152.223 397.702 151.671 397.858 151.179 398.17C150.699 398.47 150.315 398.878 150.027 399.394C149.739 399.898 149.595 400.48 149.595 401.14C149.595 401.788 149.739 402.376 150.027 402.904C150.315 403.432 150.699 403.846 151.179 404.146C151.671 404.446 152.223 404.596 152.835 404.596ZM164.055 406.216C163.143 406.216 162.321 405.994 161.589 405.55C160.869 405.106 160.299 404.5 159.879 403.732C159.459 402.964 159.249 402.106 159.249 401.158C159.249 400.186 159.459 399.322 159.879 398.566C160.299 397.798 160.869 397.192 161.589 396.748C162.321 396.304 163.143 396.082 164.055 396.082C164.859 396.082 165.573 396.256 166.197 396.604C166.821 396.94 167.313 397.396 167.673 397.972L167.403 398.386V392.374H169.095V406H167.457V403.93L167.673 404.218C167.337 404.854 166.845 405.346 166.197 405.694C165.561 406.042 164.847 406.216 164.055 406.216ZM164.199 404.596C164.811 404.596 165.357 404.446 165.837 404.146C166.317 403.846 166.695 403.438 166.971 402.922C167.259 402.394 167.403 401.806 167.403 401.158C167.403 400.498 167.259 399.91 166.971 399.394C166.695 398.866 166.317 398.452 165.837 398.152C165.357 397.852 164.811 397.702 164.199 397.702C163.599 397.702 163.053 397.858 162.561 398.17C162.081 398.47 161.703 398.878 161.427 399.394C161.151 399.898 161.013 400.486 161.013 401.158C161.013 401.806 161.151 402.394 161.427 402.922C161.703 403.438 162.081 403.846 162.561 404.146C163.041 404.446 163.587 404.596 164.199 404.596ZM174.764 406.216C174.068 406.216 173.438 406.054 172.874 405.73C172.322 405.406 171.89 404.956 171.578 404.38C171.278 403.792 171.128 403.12 171.128 402.364V396.298H172.802V402.184C172.802 402.664 172.898 403.084 173.09 403.444C173.294 403.804 173.57 404.086 173.918 404.29C174.278 404.494 174.686 404.596 175.142 404.596C175.598 404.596 176 404.494 176.348 404.29C176.708 404.086 176.984 403.792 177.176 403.408C177.38 403.024 177.482 402.568 177.482 402.04V396.298H179.174V406H177.536V404.11L177.806 404.272C177.578 404.884 177.188 405.364 176.636 405.712C176.096 406.048 175.472 406.216 174.764 406.216ZM185.907 406.216C184.959 406.216 184.113 405.994 183.369 405.55C182.637 405.106 182.061 404.5 181.641 403.732C181.221 402.964 181.011 402.1 181.011 401.14C181.011 400.168 181.221 399.304 181.641 398.548C182.061 397.792 182.637 397.192 183.369 396.748C184.113 396.304 184.959 396.082 185.907 396.082C186.543 396.082 187.137 396.196 187.689 396.424C188.241 396.652 188.727 396.958 189.147 397.342C189.567 397.726 189.873 398.176 190.065 398.692L188.571 399.412C188.343 398.908 187.995 398.5 187.527 398.188C187.059 397.864 186.519 397.702 185.907 397.702C185.319 397.702 184.785 397.852 184.305 398.152C183.837 398.452 183.465 398.86 183.189 399.376C182.913 399.892 182.775 400.486 182.775 401.158C182.775 401.806 182.913 402.394 183.189 402.922C183.465 403.438 183.837 403.846 184.305 404.146C184.785 404.446 185.319 404.596 185.907 404.596C186.519 404.596 187.059 404.44 187.527 404.128C187.995 403.804 188.343 403.378 188.571 402.85L190.065 403.606C189.873 404.11 189.567 404.56 189.147 404.956C188.727 405.34 188.241 405.646 187.689 405.874C187.137 406.102 186.543 406.216 185.907 406.216ZM195.835 406.108C194.887 406.108 194.155 405.838 193.639 405.298C193.135 404.758 192.883 403.996 192.883 403.012V397.9H191.119V396.298H191.479C191.911 396.298 192.253 396.166 192.505 395.902C192.757 395.638 192.883 395.29 192.883 394.858V394.066H194.557V396.298H196.735V397.9H194.557V402.958C194.557 403.282 194.605 403.564 194.701 403.804C194.809 404.044 194.983 404.236 195.223 404.38C195.463 404.512 195.781 404.578 196.177 404.578C196.261 404.578 196.363 404.572 196.483 404.56C196.615 404.548 196.735 404.536 196.843 404.524V406C196.687 406.036 196.513 406.06 196.321 406.072C196.129 406.096 195.967 406.108 195.835 406.108ZM147.759 430V416.59H149.379L154.401 423.736H153.573L158.559 416.59H160.179V430H158.397V418.822L159.027 419.02L154.041 426.04H153.897L148.965 419.02L149.523 418.822V430H147.759ZM165.443 430.216C164.807 430.216 164.243 430.102 163.751 429.874C163.271 429.634 162.893 429.31 162.617 428.902C162.341 428.482 162.203 428.002 162.203 427.462C162.203 426.946 162.311 426.484 162.527 426.076C162.755 425.656 163.103 425.302 163.571 425.014C164.051 424.726 164.651 424.522 165.371 424.402L168.971 423.808V425.212L165.749 425.752C165.125 425.86 164.669 426.058 164.381 426.346C164.105 426.634 163.967 426.988 163.967 427.408C163.967 427.804 164.123 428.134 164.435 428.398C164.759 428.662 165.161 428.794 165.641 428.794C166.253 428.794 166.781 428.668 167.225 428.416C167.681 428.152 168.035 427.798 168.287 427.354C168.551 426.91 168.683 426.418 168.683 425.878V423.412C168.683 422.884 168.485 422.458 168.089 422.134C167.705 421.798 167.195 421.63 166.559 421.63C166.007 421.63 165.515 421.774 165.083 422.062C164.663 422.338 164.351 422.71 164.147 423.178L162.689 422.422C162.869 421.978 163.157 421.582 163.553 421.234C163.949 420.874 164.411 420.592 164.939 420.388C165.467 420.184 166.019 420.082 166.595 420.082C167.339 420.082 167.993 420.226 168.557 420.514C169.121 420.79 169.559 421.18 169.871 421.684C170.195 422.176 170.357 422.752 170.357 423.412V430H168.719V428.164L169.025 428.272C168.821 428.656 168.545 428.992 168.197 429.28C167.849 429.568 167.441 429.796 166.973 429.964C166.505 430.132 165.995 430.216 165.443 430.216ZM172.593 430V420.298H174.231V422.08L174.051 421.828C174.279 421.276 174.627 420.868 175.095 420.604C175.563 420.328 176.133 420.19 176.805 420.19H177.399V421.774H176.553C175.869 421.774 175.317 421.99 174.897 422.422C174.477 422.842 174.267 423.442 174.267 424.222V430H172.593ZM178.526 430V416.374H180.2V425.716L179.516 425.554L184.664 420.298H186.806L183.08 424.204L187.058 430H185.078L181.442 424.744L182.486 424.69L179.66 427.642L180.2 426.418V430H178.526ZM192.491 430.216C191.555 430.216 190.721 429.994 189.989 429.55C189.257 429.106 188.681 428.5 188.261 427.732C187.841 426.952 187.631 426.082 187.631 425.122C187.631 424.15 187.835 423.286 188.243 422.53C188.663 421.774 189.227 421.18 189.935 420.748C190.655 420.304 191.459 420.082 192.347 420.082C193.067 420.082 193.703 420.214 194.255 420.478C194.819 420.73 195.293 421.078 195.677 421.522C196.073 421.954 196.373 422.452 196.577 423.016C196.793 423.568 196.901 424.144 196.901 424.744C196.901 424.876 196.889 425.026 196.865 425.194C196.853 425.35 196.835 425.5 196.811 425.644H188.855V424.204H195.839L195.047 424.852C195.155 424.228 195.095 423.67 194.867 423.178C194.639 422.686 194.303 422.296 193.859 422.008C193.415 421.72 192.911 421.576 192.347 421.576C191.783 421.576 191.267 421.72 190.799 422.008C190.331 422.296 189.965 422.71 189.701 423.25C189.449 423.778 189.347 424.408 189.395 425.14C189.347 425.848 189.455 426.472 189.719 427.012C189.995 427.54 190.379 427.954 190.871 428.254C191.375 428.542 191.921 428.686 192.509 428.686C193.157 428.686 193.703 428.536 194.147 428.236C194.591 427.936 194.951 427.552 195.227 427.084L196.631 427.804C196.439 428.248 196.139 428.656 195.731 429.028C195.335 429.388 194.861 429.676 194.309 429.892C193.769 430.108 193.163 430.216 192.491 430.216ZM202.665 430.108C201.717 430.108 200.985 429.838 200.469 429.298C199.965 428.758 199.713 427.996 199.713 427.012V421.9H197.949V420.298H198.309C198.741 420.298 199.083 420.166 199.335 419.902C199.587 419.638 199.713 419.29 199.713 418.858V418.066H201.387V420.298H203.565V421.9H201.387V426.958C201.387 427.282 201.435 427.564 201.531 427.804C201.639 428.044 201.813 428.236 202.053 428.38C202.293 428.512 202.611 428.578 203.007 428.578C203.091 428.578 203.193 428.572 203.313 428.56C203.445 428.548 203.565 428.536 203.673 428.524V430C203.517 430.036 203.343 430.06 203.151 430.072C202.959 430.096 202.797 430.108 202.665 430.108ZM205.5 430V420.298H207.174V430H205.5ZM205.5 418.75V416.59H207.174V418.75H205.5ZM209.412 430V420.298H211.05V422.188L210.78 422.026C211.02 421.414 211.404 420.94 211.932 420.604C212.472 420.256 213.102 420.082 213.822 420.082C214.518 420.082 215.136 420.238 215.676 420.55C216.228 420.862 216.66 421.294 216.972 421.846C217.296 422.398 217.458 423.022 217.458 423.718V430H215.766V424.258C215.766 423.718 215.67 423.262 215.478 422.89C215.286 422.518 215.01 422.23 214.65 422.026C214.302 421.81 213.9 421.702 213.444 421.702C212.988 421.702 212.58 421.81 212.22 422.026C211.872 422.23 211.596 422.524 211.392 422.908C211.188 423.28 211.086 423.73 211.086 424.258V430H209.412ZM224.119 433.96C223.435 433.96 222.799 433.852 222.211 433.636C221.635 433.42 221.137 433.12 220.717 432.736C220.309 432.364 219.997 431.926 219.781 431.422L221.347 430.702C221.515 431.158 221.833 431.542 222.301 431.854C222.781 432.178 223.381 432.34 224.101 432.34C224.653 432.34 225.151 432.232 225.595 432.016C226.051 431.812 226.411 431.5 226.675 431.08C226.939 430.672 227.071 430.174 227.071 429.586V427.408L227.377 427.732C227.041 428.392 226.555 428.896 225.919 429.244C225.295 429.592 224.605 429.766 223.849 429.766C222.937 429.766 222.121 429.556 221.401 429.136C220.681 428.704 220.117 428.122 219.709 427.39C219.301 426.646 219.097 425.824 219.097 424.924C219.097 424.012 219.301 423.19 219.709 422.458C220.117 421.726 220.675 421.15 221.383 420.73C222.103 420.298 222.919 420.082 223.831 420.082C224.587 420.082 225.271 420.256 225.883 420.604C226.507 420.94 227.005 421.408 227.377 422.008L227.125 422.458V420.298H228.763V429.586C228.763 430.426 228.565 431.176 228.169 431.836C227.773 432.496 227.221 433.012 226.513 433.384C225.817 433.768 225.019 433.96 224.119 433.96ZM223.993 428.146C224.569 428.146 225.085 428.002 225.541 427.714C226.009 427.426 226.381 427.042 226.657 426.562C226.933 426.07 227.071 425.524 227.071 424.924C227.071 424.336 226.933 423.796 226.657 423.304C226.381 422.812 226.009 422.422 225.541 422.134C225.085 421.846 224.569 421.702 223.993 421.702C223.405 421.702 222.871 421.846 222.391 422.134C221.911 422.422 221.533 422.812 221.257 423.304C220.993 423.784 220.861 424.324 220.861 424.924C220.861 425.524 220.993 426.07 221.257 426.562C221.533 427.042 221.905 427.426 222.373 427.714C222.853 428.002 223.393 428.146 223.993 428.146Z" fill="#242424"/>
<rect x="58" y="373" width="36" height="4" fill="#797EF1"/>
<rect x="58" y="398" width="50" height="4" fill="#797EF1"/>
<rect x="58" y="422" width="72" height="4" fill="#797EF1"/>
</g>
<rect x="31.5" y="27.5" width="219" height="431" rx="8.5" stroke="#242424" stroke-width="3"/>
</g>
<defs>
<filter id="filter0_d_589_970" x="0" y="0" width="282" height="494" filterUnits="userSpaceOnUse" color-interpolation-filters="sRGB">
<feFlood flood-opacity="0" result="BackgroundImageFix"/>
<feColorMatrix in="SourceAlpha" type="matrix" values="0 0 0 0 0 0 0 0 0 0 0 0 0 0 0 0 0 0 127 0" result="hardAlpha"/>
<feOffset dy="4"/>
<feGaussianBlur stdDeviation="15"/>
<feComposite in2="hardAlpha" operator="out"/>
<feColorMatrix type="matrix" values="0 0 0 0 0 0 0 0 0 0 0 0 0 0 0 0 0 0 0.2 0"/>
<feBlend mode="normal" in2="BackgroundImageFix" result="effect1_dropShadow_589_970"/>
<feBlend mode="normal" in="SourceGraphic" in2="effect1_dropShadow_589_970" result="shape"/>
</filter>
<filter id="filter1_d_589_970" x="59.0013" y="190.755" width="69.8019" height="72.3576" filterUnits="userSpaceOnUse" color-interpolation-filters="sRGB">
<feFlood flood-opacity="0" result="BackgroundImageFix"/>
<feColorMatrix in="SourceAlpha" type="matrix" values="0 0 0 0 0 0 0 0 0 0 0 0 0 0 0 0 0 0 127 0" result="hardAlpha"/>
<feOffset dx="4.02189" dy="4.02189"/>
<feGaussianBlur stdDeviation="13.4063"/>
<feComposite in2="hardAlpha" operator="out"/>
<feColorMatrix type="matrix" values="0 0 0 0 1 0 0 0 0 1 0 0 0 0 1 0 0 0 0.15 0"/>
<feBlend mode="normal" in2="BackgroundImageFix" result="effect1_dropShadow_589_970"/>
<feBlend mode="normal" in="SourceGraphic" in2="effect1_dropShadow_589_970" result="shape"/>
</filter>
<filter id="filter2_d_589_970" x="54.5804" y="200.277" width="66.2072" height="68.7336" filterUnits="userSpaceOnUse" color-interpolation-filters="sRGB">
<feFlood flood-opacity="0" result="BackgroundImageFix"/>
<feColorMatrix in="SourceAlpha" type="matrix" values="0 0 0 0 0 0 0 0 0 0 0 0 0 0 0 0 0 0 127 0" result="hardAlpha"/>
<feOffset dx="4.02189" dy="4.02189"/>
<feGaussianBlur stdDeviation="13.4063"/>
<feComposite in2="hardAlpha" operator="out"/>
<feColorMatrix type="matrix" values="0 0 0 0 1 0 0 0 0 1 0 0 0 0 1 0 0 0 0.15 0"/>
<feBlend mode="normal" in2="BackgroundImageFix" result="effect1_dropShadow_589_970"/>
<feBlend mode="normal" in="SourceGraphic" in2="effect1_dropShadow_589_970" result="shape"/>
</filter>
<filter id="filter3_d_589_970" x="44.3419" y="190.039" width="93.0198" height="95.4241" filterUnits="userSpaceOnUse" color-interpolation-filters="sRGB">
<feFlood flood-opacity="0" result="BackgroundImageFix"/>
<feColorMatrix in="SourceAlpha" type="matrix" values="0 0 0 0 0 0 0 0 0 0 0 0 0 0 0 0 0 0 127 0" result="hardAlpha"/>
<feOffset dx="7.18965" dy="7.18965"/>
<feGaussianBlur stdDeviation="20.1094"/>
<feComposite in2="hardAlpha" operator="out"/>
<feColorMatrix type="matrix" values="0 0 0 0 0 0 0 0 0 0 0 0 0 0 0 0 0 0 0.2 0"/>
<feBlend mode="normal" in2="BackgroundImageFix" result="effect1_dropShadow_589_970"/>
<feBlend mode="normal" in="SourceGraphic" in2="effect1_dropShadow_589_970" result="shape"/>
</filter>
<filter id="filter4_d_589_970" x="125" y="46" width="100" height="100" filterUnits="userSpaceOnUse" color-interpolation-filters="sRGB">
<feFlood flood-opacity="0" result="BackgroundImageFix"/>
<feColorMatrix in="SourceAlpha" type="matrix" values="0 0 0 0 0 0 0 0 0 0 0 0 0 0 0 0 0 0 127 0" result="hardAlpha"/>
<feOffset dy="4"/>
<feGaussianBlur stdDeviation="15"/>
<feComposite in2="hardAlpha" operator="out"/>
<feColorMatrix type="matrix" values="0 0 0 0 0 0 0 0 0 0 0 0 0 0 0 0 0 0 0.07 0"/>
<feBlend mode="normal" in2="BackgroundImageFix" result="effect1_dropShadow_589_970"/>
<feBlend mode="normal" in="SourceGraphic" in2="effect1_dropShadow_589_970" result="shape"/>
</filter>
<radialGradient id="paint0_radial_589_970" cx="0" cy="0" r="1" gradientUnits="userSpaceOnUse" gradientTransform="translate(53.312 210.702) rotate(89.7562) scale(119.059)">
<stop stop-color="white"/>
<stop offset="1" stop-color="white" stop-opacity="0"/>
</radialGradient>
<radialGradient id="paint1_radial_589_970" cx="0" cy="0" r="1" gradientUnits="userSpaceOnUse" gradientTransform="translate(26.5882 253.316) rotate(90) scale(67.7782)">
<stop stop-color="#E0DFFA" stop-opacity="0.58"/>
<stop offset="1" stop-color="white" stop-opacity="0"/>
</radialGradient>
<radialGradient id="paint2_radial_589_970" cx="0" cy="0" r="1" gradientUnits="userSpaceOnUse" gradientTransform="translate(125.863 285.802) rotate(90) scale(46.8715)">
<stop stop-color="white"/>
<stop offset="1" stop-color="white" stop-opacity="0"/>
</radialGradient>
<radialGradient id="paint3_radial_589_970" cx="0" cy="0" r="1" gradientUnits="userSpaceOnUse" gradientTransform="translate(142.513 169.893) rotate(90) scale(55.6149)">
<stop stop-color="#FFC997" stop-opacity="0.37"/>
<stop offset="1" stop-color="white" stop-opacity="0"/>
</radialGradient>
<radialGradient id="paint4_radial_589_970" cx="0" cy="0" r="1" gradientUnits="userSpaceOnUse" gradientTransform="translate(141.331 188.7) rotate(90) scale(54.4126)">
<stop stop-color="#E0DFFA" stop-opacity="0.74"/>
<stop offset="1" stop-color="white" stop-opacity="0"/>
</radialGradient>
<radialGradient id="paint5_radial_589_970" cx="0" cy="0" r="1" gradientUnits="userSpaceOnUse" gradientTransform="translate(209.5 311.5) rotate(90) scale(88.2379)">
<stop stop-color="#E0DFFA" stop-opacity="0.37"/>
<stop offset="1" stop-color="white" stop-opacity="0"/>
</radialGradient>
<clipPath id="clip0_589_970">
<rect x="30" y="26" width="222" height="434" rx="10" fill="white"/>
</clipPath>
</defs>
</svg>
