<svg width="205" height="111" viewBox="0 0 205 111" fill="none" xmlns="http://www.w3.org/2000/svg">
<path d="M61.3496 52.9978V25.6645H67.5297V31.9953L66.8263 30.9402C67.3288 28.964 68.3337 27.49 69.841 26.5186C71.3484 25.5473 73.1236 25.0615 75.167 25.0615C77.4114 25.0615 79.3876 25.6478 81.0959 26.8201C82.8043 27.9924 83.9097 29.5333 84.4121 31.4426L82.553 31.5934C83.3905 29.4162 84.6466 27.7914 86.3214 26.7196C87.9962 25.6142 89.9224 25.0615 92.0996 25.0615C94.0425 25.0615 95.7675 25.497 97.2749 26.3679C98.8158 27.2387 100.022 28.4615 100.892 30.0358C101.763 31.5767 102.199 33.3686 102.199 35.412V52.9978H95.6168V36.9696C95.6168 35.7637 95.3991 34.7253 94.9636 33.8544C94.528 32.9836 93.9251 32.3135 93.1547 31.8446C92.3844 31.3422 91.4464 31.0909 90.341 31.0909C89.3026 31.0909 88.3815 31.3422 87.5775 31.8446C86.7736 32.3135 86.154 32.9836 85.7185 33.8544C85.283 34.7253 85.0653 35.7637 85.0653 36.9696V52.9978H78.4832V36.9696C78.4832 35.7637 78.2655 34.7253 77.83 33.8544C77.3945 32.9836 76.7749 32.3135 75.9709 31.8446C75.2006 31.3422 74.2793 31.0909 73.2075 31.0909C72.169 31.0909 71.2479 31.3422 70.444 31.8446C69.6401 32.3135 69.0204 32.9836 68.5849 33.8544C68.1494 34.7253 67.9317 35.7637 67.9317 36.9696V52.9978H61.3496ZM115.053 53.6007C113.144 53.6007 111.486 53.2826 110.079 52.6461C108.672 52.0096 107.583 51.1052 106.813 49.9328C106.042 48.727 105.657 47.3368 105.657 45.7625C105.657 44.2552 105.992 42.9152 106.662 41.7429C107.332 40.537 108.37 39.5321 109.777 38.7282C111.184 37.9243 112.959 37.3549 115.103 37.0199L124.047 35.5628V40.5873L116.359 41.8936C115.053 42.1282 114.082 42.5468 113.445 43.1498C112.809 43.7527 112.49 44.5399 112.49 45.5113C112.49 46.4493 112.842 47.2029 113.546 47.7723C114.283 48.3083 115.187 48.5762 116.259 48.5762C117.632 48.5762 118.838 48.2914 119.876 47.7221C120.948 47.1191 121.769 46.2985 122.339 45.2601C122.941 44.2216 123.243 43.0828 123.243 41.8434V34.8091C123.243 33.6368 122.774 32.6652 121.836 31.8949C120.932 31.0909 119.726 30.689 118.218 30.689C116.812 30.689 115.555 31.0743 114.45 31.8446C113.378 32.5816 112.591 33.5696 112.089 34.8091L106.712 32.1963C107.248 30.7559 108.086 29.5167 109.225 28.4782C110.397 27.4064 111.77 26.5689 113.345 25.9659C114.919 25.363 116.627 25.0615 118.47 25.0615C120.714 25.0615 122.69 25.4802 124.399 26.3177C126.107 27.1216 127.43 28.2605 128.368 29.7343C129.339 31.1747 129.825 32.8662 129.825 34.8091V52.9978H123.595V48.325L125.002 48.2245C124.298 49.3968 123.461 50.3851 122.489 51.189C121.518 51.9593 120.413 52.5623 119.173 52.9978C117.934 53.3998 116.56 53.6007 115.053 53.6007ZM134.904 63.0468V25.6645H141.085V31.0909L140.482 29.7343C141.418 28.2605 142.692 27.1216 144.3 26.3177C145.908 25.4802 147.767 25.0615 149.877 25.0615C152.456 25.0615 154.783 25.698 156.862 26.9708C158.938 28.2436 160.58 29.952 161.786 32.0958C163.024 34.2397 163.645 36.6515 163.645 39.3311C163.645 41.9774 163.042 44.3892 161.836 46.5664C160.63 48.7436 158.988 50.4689 156.912 51.7417C154.834 52.9811 152.472 53.6007 149.827 53.6007C147.85 53.6007 146.025 53.2155 144.35 52.4451C142.708 51.6412 141.402 50.5022 140.431 49.0284L141.487 47.7221V63.0468H134.904ZM149.074 47.5713C150.581 47.5713 151.919 47.2196 153.093 46.5162C154.265 45.8128 155.169 44.8414 155.806 43.602C156.476 42.3625 156.811 40.939 156.811 39.3311C156.811 37.7233 156.476 36.3164 155.806 35.1105C155.169 33.8711 154.265 32.8998 153.093 32.1963C151.919 31.4593 150.581 31.0909 149.074 31.0909C147.632 31.0909 146.326 31.4427 145.154 32.1461C144.015 32.8495 143.11 33.8377 142.441 35.1105C141.804 36.35 141.487 37.7569 141.487 39.3311C141.487 40.939 141.804 42.3625 142.441 43.602C143.11 44.8414 144.015 45.8128 145.154 46.5162C146.326 47.2196 147.632 47.5713 149.074 47.5713ZM181.023 53.6007C178.342 53.6007 175.898 52.9811 173.688 51.7417C171.509 50.5022 169.768 48.8108 168.462 46.6669C167.188 44.5231 166.553 42.0779 166.553 39.3311C166.553 36.5843 167.188 34.1392 168.462 31.9953C169.768 29.8515 171.509 28.16 173.688 26.9206C175.864 25.6811 178.31 25.0615 181.023 25.0615C183.702 25.0615 186.13 25.6811 188.309 26.9206C190.486 28.16 192.21 29.8515 193.484 31.9953C194.791 34.1056 195.444 36.551 195.444 39.3311C195.444 42.0779 194.791 44.5231 193.484 46.6669C192.178 48.8108 190.435 50.5022 188.259 51.7417C186.08 52.9811 183.668 53.6007 181.023 53.6007ZM181.023 47.5713C182.497 47.5713 183.787 47.2196 184.892 46.5162C186.03 45.8128 186.918 44.8414 187.555 43.602C188.224 42.3292 188.56 40.9054 188.56 39.3311C188.56 37.7233 188.224 36.3164 187.555 35.1105C186.918 33.8711 186.03 32.8998 184.892 32.1963C183.787 31.4593 182.497 31.0909 181.023 31.0909C179.516 31.0909 178.192 31.4593 177.054 32.1963C175.914 32.8998 175.01 33.8711 174.341 35.1105C173.704 36.3164 173.386 37.7233 173.386 39.3311C173.386 40.9054 173.704 42.3292 174.341 43.602C175.01 44.8414 175.914 45.8128 177.054 46.5162C178.192 47.2196 179.516 47.5713 181.023 47.5713Z" fill="#242424"/>
<path d="M45.8557 97.8403C42.8249 97.8403 40.1774 97.1262 37.913 95.6978C35.6835 94.2347 34.1506 92.2665 33.3146 89.793L38.4355 87.337C39.1671 88.9394 40.1774 90.1936 41.4663 91.0994C42.7902 92.0052 44.2533 92.458 45.8557 92.458C47.1099 92.458 48.1027 92.1792 48.8343 91.6219C49.5658 91.0646 49.9316 90.333 49.9316 89.4272C49.9316 88.8699 49.7749 88.4169 49.4613 88.0686C49.1826 87.6853 48.782 87.3718 48.2595 87.128C47.7717 86.8492 47.2319 86.6229 46.6396 86.4487L41.9889 85.1423C39.5851 84.4455 37.7562 83.3831 36.5021 81.9548C35.2828 80.5264 34.6732 78.837 34.6732 76.8861C34.6732 75.1442 35.1087 73.6288 35.9796 72.3399C36.8854 71.016 38.122 69.9884 39.6897 69.2568C41.2921 68.5253 43.121 68.1595 45.1764 68.1595C47.8589 68.1595 50.2277 68.804 52.2831 70.0929C54.3385 71.3818 55.8017 73.1934 56.6725 75.5274L51.447 77.9834C50.9592 76.6945 50.1406 75.6667 48.991 74.9004C47.8414 74.134 46.5525 73.7508 45.1242 73.7508C43.9746 73.7508 43.0687 74.012 42.4069 74.5346C41.7451 75.0571 41.4141 75.7364 41.4141 76.5725C41.4141 77.0951 41.5533 77.5479 41.8321 77.9311C42.1109 78.3144 42.4939 78.6279 42.9817 78.8717C43.5043 79.1155 44.0966 79.342 44.7584 79.5511L49.3046 80.9097C51.6385 81.6065 53.4327 82.6516 54.6868 84.045C55.9757 85.4384 56.6202 87.1455 56.6202 89.1659C56.6202 90.8729 56.1674 92.3883 55.2616 93.7121C54.3558 95.001 53.1017 96.0113 51.4993 96.7429C49.8969 97.4745 48.0157 97.8403 45.8557 97.8403ZM74.3176 97.5267C71.1125 97.5267 68.6218 96.6559 66.8451 94.914C65.1032 93.1373 64.2324 90.6466 64.2324 87.4415V74.9004H59.3204V68.7865H59.843C61.2364 68.7865 62.3162 68.4208 63.0828 67.6892C63.8491 66.9576 64.2324 65.895 64.2324 64.5016V62.3069H71.0778V68.7865H77.6096V74.9004H71.0778V87.0758C71.0778 88.0163 71.2345 88.8177 71.5481 89.4795C71.8964 90.1413 72.4189 90.6466 73.1157 90.9949C73.8473 91.3432 74.7704 91.5174 75.8852 91.5174C76.129 91.5174 76.4078 91.4999 76.7213 91.4652C77.0696 91.4304 77.4006 91.3954 77.7142 91.3607V97.2132C77.2264 97.2829 76.6691 97.3525 76.042 97.4222C75.4149 97.492 74.8401 97.5267 74.3176 97.5267ZM92.559 97.8403C90.3643 97.8403 88.4483 97.3525 86.8109 96.3771C85.2085 95.4018 83.9717 94.0431 83.1008 92.3012C82.2647 90.5593 81.8467 88.5214 81.8467 86.1874V68.7865H88.6921V85.6126C88.6921 86.797 88.9186 87.8421 89.3714 88.7479C89.8592 89.6188 90.5385 90.3156 91.4093 90.8381C92.3152 91.3259 93.3253 91.5697 94.4401 91.5697C95.555 91.5697 96.5478 91.3259 97.4187 90.8381C98.2895 90.3156 98.9688 89.6015 99.4566 88.6957C99.9444 87.7898 100.188 86.71 100.188 85.4559V68.7865H107.034V97.2132H100.554V91.6219L101.129 92.6148C100.467 94.3567 99.3696 95.663 97.8367 96.5339C96.3388 97.4047 94.5794 97.8403 92.559 97.8403ZM126.095 97.8403C123.343 97.8403 120.887 97.1957 118.727 95.9068C116.567 94.583 114.86 92.789 113.606 90.5246C112.352 88.2601 111.725 85.7519 111.725 82.9999C111.725 80.2129 112.352 77.7046 113.606 75.4752C114.86 73.2457 116.567 71.469 118.727 70.1452C120.922 68.8213 123.36 68.1595 126.042 68.1595C128.202 68.1595 130.118 68.595 131.791 69.4659C133.497 70.3019 134.839 71.4863 135.814 73.0192L135 74.4301L134.896 57.6562H141.5V97.2132H135.135V91.7264L135.866 93.0851C134.891 94.6179 133.532 95.8023 131.791 96.6384C130.049 97.4397 128.15 97.8403 126.095 97.8403ZM126.826 91.5697C128.394 91.5697 129.77 91.2039 130.954 90.4723C132.139 89.7408 133.062 88.7304 133.724 87.4415C134.421 86.1527 134.769 84.672 134.769 82.9999C134.769 81.3625 134.421 79.8993 133.724 78.6105C133.062 77.2866 132.139 76.259 130.954 75.5274C129.77 74.7959 128.394 74.4301 126.826 74.4301C125.293 74.4301 123.918 74.8133 122.698 75.5797C121.479 76.3112 120.521 77.3216 119.824 78.6105C119.162 79.8646 118.831 81.3277 118.831 82.9999C118.831 84.672 119.162 86.1527 119.824 87.4415C120.521 88.7304 121.479 89.7408 122.698 90.4723C123.918 91.2039 125.293 91.5697 126.826 91.5697ZM147.461 97.2132V68.7865H154.307V97.2132H147.461ZM147.461 65.599V58.2833H154.307V65.599H147.461ZM174.003 97.8403C171.217 97.8403 168.673 97.1957 166.374 95.9068C164.111 94.6179 162.298 92.8586 160.939 90.6291C159.617 88.3996 158.953 85.8564 158.953 82.9999C158.953 80.1433 159.617 77.6001 160.939 75.3707C162.298 73.1412 164.111 71.3818 166.374 70.0929C168.639 68.804 171.181 68.1595 174.003 68.1595C176.79 68.1595 179.317 68.804 181.58 70.0929C183.845 71.3818 185.64 73.1412 186.962 75.3707C188.321 77.5654 189 80.1084 189 82.9999C189 85.8564 188.321 88.3996 186.962 90.6291C185.603 92.8586 183.793 94.6179 181.528 95.9068C179.265 97.1957 176.756 97.8403 174.003 97.8403ZM174.003 91.5697C175.536 91.5697 176.877 91.2039 178.026 90.4723C179.212 89.7408 180.135 88.7304 180.796 87.4415C181.493 86.1177 181.841 84.6373 181.841 82.9999C181.841 81.3277 181.493 79.8646 180.796 78.6105C180.135 77.3216 179.212 76.3112 178.026 75.5797C176.877 74.8133 175.536 74.4301 174.003 74.4301C172.435 74.4301 171.061 74.8133 169.875 75.5797C168.691 76.3112 167.75 77.3216 167.053 78.6105C166.392 79.8646 166.06 81.3277 166.06 82.9999C166.06 84.6373 166.392 86.1177 167.053 87.4415C167.75 88.7304 168.691 89.7408 169.875 90.4723C171.061 91.2039 172.435 91.5697 174.003 91.5697Z" fill="#242424"/>
<path d="M20.8737 24.0776H42.4981C45.6883 24.0776 48.2744 26.6638 48.2744 29.8539V56.7206C48.2744 59.9107 45.6883 62.4968 42.4981 62.4968H20.8737C17.6835 62.4968 15.0974 59.9107 15.0974 56.7206V29.8539C15.0974 26.6638 17.6835 24.0776 20.8737 24.0776Z" fill="#FFF3D2"/>
<path d="M10.5267 44H27.4733C29.9733 44 32 46.0194 32 48.5105V69.4895C32 71.9806 29.9733 74 27.4733 74H10.5267C8.02669 74 6 71.9806 6 69.4895V48.5105C6 46.0194 8.02669 44 10.5267 44Z" fill="#FFF3D2"/>
<path d="M20.8738 24.4346H42.4982C45.4909 24.4346 47.917 26.8606 47.917 29.8533V56.7199C47.917 59.7126 45.4909 62.1387 42.4982 62.1387H20.8738C17.8811 62.1387 15.455 59.7126 15.455 56.7199V29.8533C15.455 26.8606 17.8811 24.4346 20.8738 24.4346Z" stroke="#FFF3D2" stroke-width="0.715076"/>
<path fill-rule="evenodd" clip-rule="evenodd" d="M36.0566 24.0776C39.171 24.1645 41.6688 26.7163 41.6688 29.8516V56.9994C41.6688 59.569 39.991 61.7468 37.6711 62.4966H42.4975C45.6876 62.4966 48.2736 59.9106 48.2736 56.7205V29.8538C48.2736 26.6637 45.6876 24.0776 42.4975 24.0776H36.0566Z" fill="#F7DB94"/>
<path fill-rule="evenodd" clip-rule="evenodd" d="M22.1567 44C24.1542 44.6385 25.5948 46.4512 25.5948 48.5873V68.9219C25.5948 71.591 23.5551 74 20.7812 74C20.2274 74 21.2795 74.1593 20.7812 74H26.9774C29.7513 74 32.0001 71.8364 32.0001 69.1675V48.8327C32.0001 46.1638 29.7513 44 26.9774 44H22.1567Z" fill="#F7DB94"/>
<path d="M30.2893 13.7801C28.125 17.373 28.3245 21.5279 28.6692 23.8034C28.8262 24.8394 29.7199 25.5499 30.7642 25.4649C33.3006 25.2585 37.9734 24.3386 40.4348 20.4689C43.3034 15.9587 43.677 7.73802 43.7192 4.96409C43.7261 4.51289 43.2739 4.22247 42.8667 4.41682C40.3365 5.62371 32.9031 9.44113 30.2893 13.7801Z" fill="#70D186"/>
<path fill-rule="evenodd" clip-rule="evenodd" d="M28.5576 23.2021C31.1529 22.7561 34.7024 21.5253 36.7365 18.1816C38.7706 14.8383 39.6869 9.53905 40.0973 5.7164C41.3981 4.99207 42.5247 4.43113 43.2573 4.08122C43.6734 3.88225 44.1332 4.18915 44.1107 4.6498C43.9698 7.53668 43.3178 16.093 40.449 20.7875C37.9926 24.8071 33.3335 25.7688 30.7937 25.9861C29.7422 26.0761 28.8456 25.3528 28.6909 24.3087C28.6418 23.9771 28.5952 23.6059 28.5576 23.2021Z" fill="#56A484"/>
<path d="M24.8703 22.4541C26.0983 24.2915 28.0683 25.0785 29.2017 25.3939C29.7248 25.5394 30.2361 25.2582 30.4065 24.7377C30.8316 23.4399 31.3785 20.8949 30.0685 18.8292C28.5543 16.4416 24.8018 14.5047 23.5143 13.8912C23.3023 13.7901 23.0744 13.942 23.0812 14.18C23.124 15.6791 23.3768 20.2196 24.8703 22.4541Z" fill="#70D186"/>
<path fill-rule="evenodd" clip-rule="evenodd" d="M28.9244 25.3035C29.2361 23.9215 29.3654 21.927 28.2333 20.2243C27.0921 18.5079 24.8212 16.9262 23.1221 15.9038C23.0435 15.0637 23.0098 14.3514 22.9953 13.9012C22.9875 13.6573 23.225 13.5047 23.4389 13.6163C24.7619 14.3062 28.6201 16.4601 30.227 18.8868C31.6131 20.9802 31.0972 23.518 30.6798 24.8177C30.5108 25.3441 29.9924 25.6234 29.4655 25.4737C29.3013 25.4271 29.1194 25.3708 28.9244 25.3035Z" fill="#56A484"/>
</svg>
