<svg  viewBox="0 0 326 767" preserveAspectRatio="none" fill="none" xmlns="http://www.w3.org/2000/svg">
<path vector-effect="non-scaling-stroke" d="M5 24.2591C3.067 24.2591 1.5 25.8261 1.5 27.7591L1.5 351.38L1.5 761.5C1.5 763.433 3.06701 765 5 765H321C322.941 765 324.5 763.446 324.5 761.521V760.774V760.026V759.278V758.529V757.779V757.029V756.278V755.526V754.774V754.021V753.268V752.514V751.759V751.004V750.248V749.492V748.734V747.977V747.218V746.459V745.7V744.94V744.179V743.418V742.656V741.893V741.13V740.366V739.602L324.5 738.837V738.072V737.306V736.539V735.772V735.004V734.236V733.467V732.698V731.928V731.157V730.386V729.614V728.842V728.069V727.296V726.522V725.748V724.973V724.198V723.422V722.646V721.869V721.091V720.313V719.535V718.755V717.976V717.196V716.415V715.634V714.853V714.071V713.288V712.505V711.722V710.938V710.153V709.368V708.583V707.797V707.01V706.224V705.436V704.648V703.86V703.071V702.282V701.493V700.703V699.912V699.121V698.33V697.538V696.745V695.953V695.16V694.366V693.572V692.777V691.983V691.187V690.392V689.595V688.799V688.002V687.204V686.407V685.609V684.81V684.011V683.212V682.412V681.612V680.811V680.01V679.209V678.407V677.605V676.803V676V675.197V674.393V673.589V672.785V671.98V671.175V670.37V669.564V668.758V667.952V667.145V666.338V665.53V664.723V663.915V663.106V662.297V661.488V660.679V659.869V659.059V658.249V657.438V656.627V655.816V655.004V654.192V653.38V652.568V651.755V650.942V650.129V649.315V648.501V647.687V646.872V646.057V645.242V644.427V643.612V642.796V641.98V641.163V640.347V639.53V638.713V637.895V637.078V636.26V635.442V634.623V633.805V632.986V632.167V631.347V630.528V629.708V628.888V628.068V627.248V626.427V625.606V624.785V623.964V623.142V622.321V621.499V620.677V619.855V619.032V618.21V617.387V616.564V615.741V614.917V614.094V613.27V612.446V611.622V610.798V609.974V609.149V608.324V607.5V606.675V605.849V605.024V604.199V603.373V602.547V601.722V600.896V600.07V599.243V598.417V597.591V596.764V595.937V595.11V594.283V593.456V592.629V591.802V590.975V590.147V589.319V588.492V587.664V586.836V586.008V585.18V584.352V583.524V582.696V581.867V581.039V580.211V579.382V578.553V577.725V576.896V576.067V575.238V574.409V573.581V572.752V571.922V571.093V570.264V569.435V568.606V567.777V566.948V566.118V565.289V564.46V563.63V562.801V561.972V561.142V560.313V559.484V558.654V557.825V556.996V556.166V555.337V554.508V553.678V552.849V552.02V551.19V550.361V549.532V548.703V547.874V547.045V546.216V545.387V544.558V543.729V542.9V542.071V541.242V540.413V539.585V538.756V537.927V537.099V536.271V535.442V534.614V533.786V532.958V532.13V531.302V530.474V529.646V528.818V527.991V527.163V526.336V525.508V524.681V523.854V523.027V522.2V521.373V520.547V519.72V518.894V518.068V517.241V516.415V515.59V514.764V513.938V513.113V512.287V511.462V510.637V509.812V508.988V508.163V507.339V506.514V505.69V504.866V504.043V503.219V502.396V501.572V500.749V499.927V499.104V498.281V497.459V496.637V495.815V494.993V494.172V493.351V492.529V491.709V490.888V490.067V489.247V488.427V487.607V486.788V485.968V485.149V484.33V483.512V482.693V481.875V481.057V480.239V479.422V478.605V477.788V476.971V476.155V475.338V474.522V473.707V472.891V472.076V471.261V470.447V469.632V468.818V468.005V467.191V466.378V465.565V464.753V463.94V463.128V462.317V461.505V460.694V459.884V459.073V458.263V457.453V456.644V455.834V455.026V454.217V453.409V452.601V451.793V450.986V450.179V449.373V448.567V447.761V446.955V446.15V445.346V444.541V443.737V442.934V442.13V441.327V440.525V439.723V438.921V438.119V437.318V436.518V435.717V434.917V434.118V433.319V432.52V431.722V430.924V430.126V429.329V428.533V427.736V426.94V426.145V425.35V424.555V423.761V422.967V422.174V421.381V420.589V419.797V419.005V418.214V417.423V416.633V415.843V415.054V414.265V413.477V412.689V411.901V411.114V410.328V409.542V408.756V407.971V407.186V406.402V405.619V404.835V404.053V403.271V402.489V401.708V400.927V400.147V399.367V398.588V397.809V397.031V396.253V395.476V394.7V393.924V393.148V392.373V391.599V390.825V390.051V389.278V388.506V387.734V386.963V386.192V385.422V384.652V383.883V383.115V382.347V381.58V380.813V380.047V379.281V378.516V377.752V376.988V376.224V375.462V374.7V373.938V373.177V372.417V371.657V370.898V370.139V369.381V368.624V367.867V367.111V366.356V365.601V364.847V364.093V363.34V362.588V361.836V361.085V360.334V359.584V358.835V358.087V357.339V356.592V355.845V355.099V354.354V353.609V352.865V352.122V351.38V27.7591C324.5 25.8261 322.933 24.2591 321 24.2591L112.876 24.2591C110.99 24.2591 109.198 23.4407 107.964 22.0162L91.7791 3.34205L92.9126 2.35964L91.7791 3.34205C90.3835 1.73175 87.8849 1.73175 86.4893 3.34205L70.3048 22.0162C69.0702 23.4407 67.2779 24.2591 65.3928 24.2591L5 24.2591Z" stroke="#787EF2" stroke-width="3"/>
</svg>
