<svg viewBox="0 0 760 395" preserveAspectRatio="none" fill="none" xmlns="http://www.w3.org/2000/svg">
<path vector-effect="non-scaling-stroke" d="M391 1.5H31.0004C29.0674 1.5 27.5004 3.067 27.5004 5V79.8464C27.5004 81.6335 26.7646 83.3418 25.466 84.5696L3.37378 105.457C1.91317 106.838 1.91317 109.162 3.37378 110.543L25.466 131.43C26.7646 132.658 27.5004 134.367 27.5004 136.154V390C27.5004 391.933 29.0674 393.5 31.0004 393.5H391H391.825H392.648H393.47H394.29H395.109H395.927H396.743H397.558H398.372H399.184H399.995H400.804H401.613H402.42H403.225H404.029H404.832H405.634H406.434H407.233H408.031H408.828H409.623H410.417H411.209H412.001H412.791H413.58H414.367H415.154H415.939H416.723H417.505H418.287H419.067H419.846H420.624H421.4H422.176H422.95H423.723H424.495H425.266H426.035H426.804H427.571H428.337H429.102H429.866H430.628H431.39H432.15H432.909H433.668H434.425H435.181H435.935H436.689H437.442H438.194H438.944H439.693H440.442H441.189H441.935H442.681H443.425H444.168H444.91H445.651H446.391H447.13H447.868H448.605H449.341H450.076H450.81H451.544H452.276H453.007H453.737H454.466H455.194H455.922H456.648H457.373H458.098H458.821H459.544H460.266H460.986H461.706H462.425H463.143H463.86H464.577H465.292H466.007H466.72H467.433H468.145H468.856H469.566H470.276H470.984H471.692H472.399H473.105H473.81H474.514H475.218H475.921H476.623H477.324H478.025H478.724H479.423H480.121H480.819H481.515H482.211H482.906H483.601H484.295H484.987H485.68H486.371H487.062H487.752H488.441H489.13H489.818H490.505H491.192H491.878H492.563H493.248H493.932H494.615H495.297H495.979H496.661H497.341H498.022H498.701H499.38H500.058H500.736H501.413H502.089H502.765H503.44H504.115H504.789H505.463H506.136H506.808H507.48H508.151H508.822H509.492H510.162H510.831H511.5H512.168H512.836H513.503H514.17H514.836H515.501H516.167H516.831H517.496H518.159H518.823H519.486H520.148H520.81H521.472H522.133H522.793H523.454H524.114H524.773H525.432H526.091H526.749H527.407H528.064H528.721H529.378H530.034H530.69H531.346H532.001H532.656H533.311H533.965H534.619H535.272H535.926H536.579H537.231H537.884H538.536H539.188H539.839H540.49H541.141H541.792H542.442H543.092H543.742H544.392H545.041H545.69H546.339H546.988H547.636H548.285H548.933H549.58H550.228H550.875H551.523H552.17H552.817H553.463H554.11H554.756H555.402H556.048H556.694H557.34H557.986H558.631H559.277H559.922H560.567H561.212H561.857H562.502H563.147H563.791H564.436H565.081H565.725H566.369H567.014H567.658H568.302H568.946H569.59H570.234H570.879H571.523H572.167H572.811H573.455H574.099H574.743H575.387H576.031H576.675H577.319H577.963H578.607H579.251H579.896H580.54H581.184H581.829H582.473H583.118H583.762H584.407H585.052H585.697H586.342H586.987H587.632H588.278H588.923H589.569H590.215H590.86H591.507H592.153H592.799H593.446H594.092H594.739H595.386H596.033H596.681H597.328H597.976H598.624H599.272H599.921H600.569H601.218H601.867H602.517H603.166H603.816H604.466H605.117H605.767H606.418H607.069H607.721H608.372H609.024H609.677H610.329H610.982H611.635H612.289H612.943H613.597H614.252H614.906H615.562H616.217H616.873H617.53H618.186H618.843H619.501H620.158H620.817H621.475H622.134H622.794H623.453H624.114H624.774H625.435H626.097H626.759H627.421H628.084H628.747H629.411H630.075H630.74H631.405H632.07H632.736H633.403H634.07H634.738H635.406H636.074H636.744H637.413H638.083H638.754H639.425H640.097H640.77H641.442H642.116H642.79H643.465H644.14H644.815H645.492H646.169H646.846H647.524H648.203H648.883H649.563H650.243H650.924H651.606H652.289H652.972H653.656H654.34H655.026H655.711H656.398H657.085H657.773H658.462H659.151H659.841H660.531H661.223H661.915H662.608H663.301H663.996H664.691H665.386H666.083H666.78H667.478H668.177H668.877H669.577H670.278H670.98H671.683H672.386H673.091H673.796H674.502H675.208H675.916H676.625H677.334H678.044H678.755H679.467H680.179H680.893H681.607H682.323H683.039H683.756H684.474H685.193H685.912H686.633H687.354H688.077H688.8H689.525H690.25H690.976H691.703H692.431H693.16H693.89H694.621H695.353H696.086H696.82H697.555H698.291H699.028H699.766H700.505H701.244H701.985H702.727H703.47H704.214H704.959H705.706H706.453H707.201H707.95H708.701H709.452H710.205H710.958H711.713H712.469H713.226H713.984H714.743H715.503H716.264H717.027H717.79H718.555H719.321H720.088H720.856H721.626H722.396H723.168H723.941H724.715H725.49H726.267H727.044H727.823H728.603H729.384H730.167H730.951H731.736H732.522H733.309H734.098H734.888H735.679H736.472H737.265H738.06H738.857H739.654H740.453H741.253H742.055H742.857H743.661H744.467H745.274H746.082H746.891H747.702H748.514H749.327H750.142H750.958C752.907 393.5 754.5 391.917 754.5 390V5C754.5 3.06701 752.933 1.5 751 1.5H391ZM391 1.5V394" stroke="#787EF2" stroke-width="3"/>
</svg>
