<svg width="383" height="294" viewBox="0 0 383 294" fill="none" xmlns="http://www.w3.org/2000/svg">
<path d="M-99.9348 255.172L136.933 8.32009C145.02 -0.106963 158.121 -0.106963 166.197 8.32009C174.283 16.7471 174.283 30.4004 166.197 38.8158L-70.6712 285.668C-78.7578 294.095 -91.8594 294.095 -99.9348 285.668C-108.021 277.241 -108.021 263.588 -99.9348 255.172Z" stroke="#E5E4FF" stroke-width="3" stroke-miterlimit="10"/>
<path d="M2.09253 255.172L238.96 8.32009C247.047 -0.106963 260.149 -0.106963 268.224 8.32009C276.311 16.7471 276.311 30.4004 268.224 38.8158L31.3562 285.668C23.2696 294.095 10.168 294.095 2.09253 285.668C-5.99407 277.241 -5.99407 263.588 2.09253 255.172Z" stroke="#7D82FC" stroke-width="3" stroke-miterlimit="10"/>
<path d="M108.76 255.172L345.628 8.32009C353.715 -0.106963 366.817 -0.106963 374.892 8.32009C382.979 16.7471 382.979 30.4004 374.892 38.8158L138.024 285.668C129.938 294.095 116.836 294.095 108.76 285.668C100.674 277.241 100.674 263.588 108.76 255.172Z" stroke="#E5E4FF" stroke-width="3" stroke-miterlimit="10"/>
</svg>
