<svg width="257" height="213" viewBox="0 0 257 213" fill="none" xmlns="http://www.w3.org/2000/svg">
<g opacity="0.75">
<path d="M7.2317 179.705L211.553 -29.4512C218.529 -36.5913 229.83 -36.5913 236.796 -29.4512C243.771 -22.311 243.771 -10.7427 236.796 -3.6124L32.4744 205.543C25.4989 212.683 14.1975 212.683 7.2317 205.543C0.256239 198.403 0.256239 186.835 7.2317 179.705Z" stroke="white" stroke-width="3" stroke-miterlimit="10"/>
<path d="M95.2415 179.705L299.563 -29.4512C306.538 -36.5913 317.84 -36.5913 324.806 -29.4512C331.781 -22.311 331.781 -10.7427 324.806 -3.6124L120.484 205.543C113.509 212.683 102.207 212.683 95.2415 205.543C88.266 198.403 88.266 186.835 95.2415 179.705Z" stroke="#7D82FC" stroke-width="3" stroke-miterlimit="10"/>
<path d="M187.252 179.705L391.574 -29.4512C398.549 -36.5913 409.85 -36.5913 416.816 -29.4512C423.792 -22.311 423.792 -10.7427 416.816 -3.6124L212.495 205.543C205.519 212.683 194.218 212.683 187.252 205.543C180.277 198.403 180.277 186.835 187.252 179.705Z" stroke="white" stroke-width="3" stroke-miterlimit="10"/>
</g>
</svg>
